<?xml version="1.0" standalone="no"?>
<!DOCTYPE svg PUBLIC "-//W3C//DTD SVG 1.1//EN" "http://www.w3.org/Graphics/SVG/1.1/DTD/svg11.dtd" >
<svg xmlns="http://www.w3.org/2000/svg" xmlns:xlink="http://www.w3.org/1999/xlink" version="1.1">
<metadata>
Created by FontForge 20150318 at Fri Nov 27 19:22:31 2015
 By uniteet7
Copyright (c) ELM, 2005. All rights reserved.
</metadata>
<defs>
<font id="FuturicaL" horiz-adv-x="1024" >
  <font-face 
    font-family="FuturicaL"
    font-weight="400"
    font-stretch="normal"
    units-per-em="2048"
    panose-1="2 0 5 3 0 0 0 2 0 3"
    ascent="1638"
    descent="-410"
    x-height="887"
    cap-height="1464"
    bbox="-342 -483 2181 1972"
    underline-thickness="80"
    underline-position="-223"
    unicode-range="U+0020-F002"
  />
<missing-glyph horiz-adv-x="1229" 
d="M102 -362v1806h1024v-1806h-1024zM217 -248h795v1577h-795v-1577z" />
    <glyph glyph-name=".notdef" horiz-adv-x="1229" 
d="M102 -362v1806h1024v-1806h-1024zM217 -248h795v1577h-795v-1577z" />
    <glyph glyph-name=".null" horiz-adv-x="0" 
 />
    <glyph glyph-name="nonmarkingreturn" horiz-adv-x="590" 
 />
    <glyph glyph-name="space" unicode=" " horiz-adv-x="590" 
 />
    <glyph glyph-name="exclam" unicode="!" horiz-adv-x="635" 
d="M256 303v1194h123v-1194h-123zM215 63q0 21 8 40t21.5 33t32.5 22t40 8t40 -8t33 -22t22 -33t8 -40t-8 -40t-22 -32.5t-33 -21.5t-40 -8q-43 0 -72.5 29.5t-29.5 72.5z" />
    <glyph glyph-name="quotedbl" unicode="&#x22;" horiz-adv-x="551" 
d="M451 1434v-553h-86v553h86zM186 1434v-553h-86v553h86z" />
    <glyph glyph-name="numbersign" unicode="#" horiz-adv-x="1575" 
d="M979 866h-270l-99 -282h269zM915 1454l-174 -498h271l176 498h110l-174 -498h322l-31 -90h-323l-101 -282h348l-30 -90h-351l-174 -494h-112l176 494h-270l-179 -494h-110l174 494h-334l31 90h336l100 282h-360l28 90h365l176 498h110z" />
    <glyph glyph-name="dollar" unicode="$" horiz-adv-x="1180" 
d="M555 1352q-89 -14 -144 -75q-55 -59 -55 -142q0 -82 47 -141.5t152 -110.5v469zM635 117q54 7 97.5 30.5t73.5 61.5t46 88.5t16 112.5q0 99 -55.5 171t-177.5 130v-594zM635 -168h-80v174q-138 0 -236.5 67t-158.5 201l114 58q62 -199 281 -217v633q-179 85 -255 174
q-77 91 -77 208q0 67 22.5 123.5t65 99.5t104.5 71t140 40v101h80v-99q105 -12 176.5 -56t116.5 -122l-105 -57q-27 54 -76 85t-112 35v-505q204 -98 282 -192q78 -95 78 -234q0 -167 -97 -279q-95 -112 -263 -139v-170z" />
    <glyph glyph-name="percent" unicode="%" horiz-adv-x="1497" 
d="M967 336q0 -139 44.5 -211t129.5 -72t130.5 73t45.5 210q0 139 -44 209.5t-132 70.5q-85 0 -129.5 -71.5t-44.5 -208.5zM1436 334q0 -89 -20 -158t-58 -117t-93 -73t-124 -25t-123.5 25t-92 73t-57.5 117t-20 158q0 88 20 158t57.5 118t92 73.5t123.5 25.5q139 0 217 -99
t78 -276zM182 1106q0 -139 44.5 -211t129.5 -72t130.5 73t45.5 210q0 139 -44 209.5t-132 70.5q-85 0 -129.5 -71.5t-44.5 -208.5zM651 1104q0 -177 -78 -276t-217 -99q-69 0 -123.5 25.5t-92 73.5t-57.5 117.5t-20 158.5q0 88 20 158t57.5 118t92 73.5t123.5 25.5
q139 0 217 -99t78 -276zM270 -39l842 1518h109l-842 -1518h-109z" />
    <glyph glyph-name="ampersand" unicode="&#x26;" horiz-adv-x="1311" 
d="M895 301l-383 467l-66 -47q-145 -105 -190 -176q-43 -67 -43 -158q0 -130 90 -218q91 -89 219 -89q88 0 179.5 54.5t193.5 166.5zM551 907l65 45q154 107 154 236q0 71 -52 119q-52 49 -128 49q-83 0 -136 -47t-53 -121q0 -39 18 -83t50 -87zM1145 0l-182 215
q-105 -123 -214.5 -182.5t-232.5 -59.5q-189 0 -310 115q-120 115 -120 293q0 128 85 240q86 113 278 233l-56 74q-70 93 -92 148q-22 56 -22 120q0 113 89 187q90 75 230 75q128 0 208 -76q81 -77 81 -196q0 -50 -15.5 -95t-48 -88t-84 -86t-123.5 -88l361 -446
q96 115 174 242l86 -50q-49 -81 -98 -150t-101 -130l252 -295h-145z" />
    <glyph glyph-name="quotesingle" unicode="'" horiz-adv-x="285" 
d="M186 1434v-553h-86v553h86z" />
    <glyph glyph-name="parenleft" unicode="(" horiz-adv-x="559" 
d="M512 1483q-108 -218 -160.5 -448.5t-52.5 -483.5q0 -275 53 -509t160 -435l-90 -53q-238 443 -238 1001q0 275 59.5 518t178.5 459z" />
    <glyph glyph-name="parenright" unicode=")" horiz-adv-x="559" 
d="M47 1483l90 49q121 -217 179.5 -458.5t58.5 -518.5q0 -558 -238 -1001l-90 53q108 203 161.5 437t53.5 507q0 496 -215 932z" />
    <glyph glyph-name="asterisk" unicode="*" horiz-adv-x="854" 
d="M162 928l-43 78l233 122l-233 129l43 78l227 -145l-6 274h88l-8 -274l229 143l43 -76l-233 -129l233 -122l-47 -78l-227 139l8 -266h-86l8 264z" />
    <glyph glyph-name="plus" unicode="+" horiz-adv-x="1706" 
d="M893 1221v-570h559v-82h-559v-569h-80v569h-559v82h559v570h80z" />
    <glyph glyph-name="comma" unicode="," horiz-adv-x="590" 
d="M324 254l145 -61l-264 -515l-84 39z" />
    <glyph glyph-name="hyphen" unicode="-" horiz-adv-x="711" 
d="M137 506h436v-129h-436v129z" />
    <glyph glyph-name="period" unicode="." horiz-adv-x="590" 
d="M193 84q0 43 29.5 72.5t72.5 29.5t72.5 -29.5t29.5 -72.5t-29.5 -72.5t-72.5 -29.5t-72.5 29.5t-29.5 72.5z" />
    <glyph glyph-name="slash" unicode="/" horiz-adv-x="825" 
d="M717 1497h108l-716 -1687h-109z" />
    <glyph glyph-name="zero" unicode="0" horiz-adv-x="1180" 
d="M236 717q0 -299 94 -468t262 -169q175 0 264.5 162t89.5 479q0 311 -91.5 475t-266.5 164q-165 0 -259 -171q-93 -170 -93 -472zM588 -39q-226 0 -356 202t-130 556q0 355 130 557q131 203 360 203q228 0 357 -202q130 -200 130 -558q0 -360 -130 -559
q-129 -199 -361 -199z" />
    <glyph glyph-name="one" unicode="1" horiz-adv-x="1180" 
d="M545 0v1331h-264l63 119h330v-1450h-129z" />
    <glyph glyph-name="two" unicode="2" horiz-adv-x="1180" 
d="M1012 115v-115h-940l315 346q33 37 96 105q391 424 391 612q0 131 -90 214q-89 83 -233 83q-148 0 -233 -93q-85 -91 -85 -253h-131v14q0 209 124 330t339 121q207 0 329 -112q124 -111 124 -296q0 -235 -345 -602l-9 -10l-322 -344h670z" />
    <glyph glyph-name="three" unicode="3" horiz-adv-x="1180" 
d="M242 368q9 -142 89.5 -215t229.5 -73q154 0 239 82q87 82 87 227q0 148 -88 230q-88 83 -242 83q-23 0 -34.5 -0.5t-20.5 -0.5v126q27 -2 41 -3t24 -1q70 0 125 18t93.5 52t58.5 83t20 111q0 124 -79 199q-77 76 -207 76q-118 0 -190.5 -62t-86.5 -174h-143
q16 163 129 258t291 95q189 0 306 -105t117 -274q0 -126 -66 -214.5t-187 -125.5q134 -45 206 -140.5t72 -230.5q0 -195 -126 -312q-127 -116 -339 -116q-211 0 -329 105t-134 303z" />
    <glyph glyph-name="four" unicode="4" horiz-adv-x="1180" 
d="M721 485v660l-461 -660h461zM721 0v371h-660l793 1128v-1014h150v-114h-150v-371h-133z" />
    <glyph glyph-name="five" unicode="5" horiz-adv-x="1180" 
d="M350 883q57 24 110 36.5t107 12.5q207 0 335 -128t128 -333q0 -228 -137 -371q-137 -141 -358 -141q-156 0 -267 69t-186 212l104 77q64 -123 149.5 -180t205.5 -57q161 0 256 104q96 103 96 279q0 163 -98 258q-98 96 -265 96q-188 0 -303 -106l-41 4l187 735h592v-113
h-500z" />
    <glyph glyph-name="six" unicode="6" horiz-adv-x="1180" 
d="M260 416q0 -154 89 -248q90 -92 239 -92q148 0 236 97q89 98 89 261q0 146 -90 239t-233 93q-146 0 -238 -98t-92 -252zM391 805q58 37 115.5 55.5t118.5 18.5q188 0 307 -126q119 -125 119 -325q0 -209 -135 -339q-133 -130 -347 -130q-203 0 -325 122
q-121 121 -121 327q0 121 52 244q26 63 85 156.5t150 221.5l342 477l108 -67z" />
    <glyph glyph-name="seven" unicode="7" horiz-adv-x="1180" 
d="M223 18l668 1319h-707v113h899l-737 -1495z" />
    <glyph glyph-name="eight" unicode="8" horiz-adv-x="1180" 
d="M590 80q152 0 240 85t88 234q0 150 -89 237t-239 87q-152 0 -239 -87q-87 -86 -87 -237q0 -148 86 -234q86 -85 240 -85zM594 842q63 0 113.5 18t85.5 51t54 81t19 108q0 120 -75 191q-74 71 -199 71t-199 -71t-74 -191q0 -118 74 -189q73 -69 201 -69zM412 788
q-111 36 -171.5 122.5t-60.5 209.5q0 158 115 258q116 101 297 101q188 0 298 -103q111 -102 111 -272q0 -114 -58.5 -194t-172.5 -122q132 -34 209 -140q76 -103 76 -251q0 -203 -124 -320q-124 -116 -339 -116t-342 116q-125 116 -125 316q0 151 76 255q77 106 211 140z
" />
    <glyph glyph-name="nine" unicode="9" horiz-adv-x="1180" 
d="M915 1022q0 155 -90 248q-88 94 -237 94q-148 0 -237 -98t-89 -260q0 -146 89 -241q90 -93 233 -93q146 0 238 98q93 97 93 252zM782 633q-57 -37 -112.5 -54.5t-118.5 -17.5q-189 0 -309 124q-119 125 -119 325q0 207 134 338t347 131q204 0 326 -123q123 -122 123 -326
q0 -126 -60 -259q-29 -67 -86.5 -157.5t-142.5 -205.5l-350 -476l-109 66z" />
    <glyph glyph-name="colon" unicode=":" horiz-adv-x="635" 
d="M215 84q0 43 29.5 72.5t72.5 29.5q21 0 40 -8t33 -21.5t22 -32.5t8 -40t-8 -40t-22 -32.5t-33 -21.5t-40 -8q-43 0 -72.5 29.5t-29.5 72.5zM215 760q0 43 29.5 72.5t72.5 29.5q21 0 40 -8t33 -21.5t22 -32.5t8 -40t-8 -40t-22 -33t-33 -22t-40 -8t-40 8t-32.5 22
t-21.5 33t-8 40z" />
    <glyph glyph-name="semicolon" unicode=";" horiz-adv-x="635" 
d="M301 760q0 43 29.5 72.5t72.5 29.5q21 0 40 -8t33 -21.5t22 -32.5t8 -40t-8 -40t-22 -33t-33 -22t-40 -8t-40 8t-32.5 22t-21.5 33t-8 40zM332 254l145 -61l-264 -515l-84 39z" />
    <glyph glyph-name="less" unicode="&#x3c;" horiz-adv-x="1706" 
d="M1442 1034l-1045 -424l1045 -424v-88l-1178 482v61l1178 483v-90z" />
    <glyph glyph-name="equal" unicode="=" horiz-adv-x="1706" 
d="M1452 469v-82h-1198v82h1198zM1452 831v-79h-1198v79h1198z" />
    <glyph glyph-name="greater" unicode="&#x3e;" horiz-adv-x="1706" 
d="M1442 641v-61l-1178 -482v88l1045 424l-1045 424v90z" />
    <glyph glyph-name="question" unicode="?" horiz-adv-x="1053" 
d="M401 63q0 21 8 40t22 33t33 22t40 8t40 -8t32.5 -22t21.5 -33t8 -40q0 -43 -29.5 -72.5t-72.5 -29.5q-21 0 -40 8t-33 21.5t-22 32.5t-8 40zM291 1096h-119v32q0 173 97 270q97 99 266 99q152 0 242 -90q91 -90 91 -242q0 -111 -48 -186q-49 -76 -195 -170
q-26 -17 -72 -45q-199 -123 -199 -232q0 -36 12 -65.5t34 -50t53 -32t69 -11.5q90 0 138.5 46.5t48.5 131.5v18h110v-24q0 -136 -79.5 -207.5t-231.5 -71.5q-124 0 -203 75q-78 75 -78 194q0 88 46 153q46 67 171 150q13 8 31.5 19.5t41.5 26.5q226 142 226 273
q0 48 -15 87.5t-43 67.5t-68 43t-89 15q-115 0 -176 -69.5t-61 -198.5v-6z" />
    <glyph glyph-name="at" unicode="@" horiz-adv-x="2048" 
d="M1303 827l61 129h80l-137 -553q-10 -36 -15.5 -64.5t-5.5 -43.5q0 -45 30 -68.5t87 -23.5q48 0 100 19.5t103 56.5q100 73 162 207q61 132 61 282q0 272 -200 439t-525 167q-337 0 -569 -192q-155 -129 -232.5 -296.5t-77.5 -375.5q0 -327 221 -522q222 -195 592 -195
q160 0 324 51q82 25 156 60.5t143 81.5l29 -45q-292 -220 -648 -220q-188 0 -343.5 46t-276.5 139q-153 115 -227 267t-74 349q0 163 50.5 307t147.5 265q145 176 345 266t450 90q158 0 304 -44q73 -22 135 -53t114 -71q129 -99 194.5 -226.5t65.5 -277.5q0 -170 -63 -308
t-181 -232q-67 -54 -145.5 -82.5t-159.5 -28.5q-192 0 -192 145q0 11 3 34q1 2 1 5q-49 -88 -124.5 -136t-166.5 -48q-155 0 -234 82.5t-79 243.5q0 228 134 386q135 158 327 158q96 0 160.5 -42.5t95.5 -127.5zM1219 467l63 254q-22 100 -81 151.5t-152 51.5
q-153 0 -256 -138q-103 -137 -103 -340q0 -115 57 -180t160 -65q110 0 196 72q85 73 116 194z" />
    <glyph glyph-name="A" unicode="A" horiz-adv-x="1223" 
d="M356 610h510l-250 637zM-18 0l643 1522l616 -1522h-145l-187 496h-598l-194 -496h-135z" />
    <glyph glyph-name="B" unicode="B" horiz-adv-x="1133" 
d="M315 813h166q183 0 258 60q76 60 76 200q0 151 -74 213t-260 62h-166v-535zM315 115h170q144 0 200 12q55 12 93 41q48 36 75.5 99.5t27.5 135.5q0 88 -31 154.5t-86 99.5q-36 22 -90 31q-49 10 -160 10h-29h-170v-583zM182 0v1464h254q84 0 144 -4t97 -12
q74 -17 126 -55q73 -55 111 -134t38 -176q0 -117 -61 -199q-62 -83 -168 -108q141 -21 221 -113t80 -233q0 -206 -125 -321q-64 -59 -154 -85q-90 -24 -307 -24h-256z" />
    <glyph glyph-name="C" unicode="C" horiz-adv-x="1464" 
d="M1358 1196q-109 94 -222.5 139t-240.5 45q-284 0 -462 -180q-177 -180 -177 -469q0 -146 43 -261t133 -206q88 -88 201 -134t244 -46q127 0 246 42.5t227 127.5v-156q-109 -66 -229 -101.5t-238 -35.5q-159 0 -304 57q-146 57 -249 160q-108 106 -162.5 245.5
t-54.5 307.5q0 165 56.5 306.5t162.5 244.5q105 102 248 158q145 57 303 57q281 0 477 -154z" />
    <glyph glyph-name="D" unicode="D" horiz-adv-x="1427" 
d="M315 115h187q229 0 322 25q95 26 161 87q93 87 139.5 214t46.5 292q0 169 -47 296.5t-141 209.5q-71 64 -171 89q-102 26 -353 26h-25h-119v-1239zM182 0v1464h228q305 0 433 -30q130 -31 220 -103q123 -97 186.5 -249.5t63.5 -350.5t-63.5 -350.5t-184.5 -245.5
q-48 -37 -102 -62.5t-115 -41.5q-120 -31 -393 -31h-45h-228z" />
    <glyph glyph-name="E" unicode="E" horiz-adv-x="1051" 
d="M182 0v1464h725v-125h-592v-458h592v-125h-592v-631h592v-125h-725z" />
    <glyph glyph-name="F" unicode="F" horiz-adv-x="1026" 
d="M182 0v1464h725v-125h-592v-458h570v-125h-570v-756h-133z" />
    <glyph glyph-name="G" unicode="G" horiz-adv-x="1673" 
d="M1382 1096q-90 139 -219 209.5t-293 70.5q-272 0 -443 -184q-171 -185 -171 -477q0 -132 45 -247t133 -206q175 -178 436 -178q246 0 400 145q155 146 159 379h-505v115h651v-16q0 -349 -191 -548q-191 -198 -526 -198q-333 0 -539 212t-206 556q0 159 51.5 298.5
t150.5 244.5q210 225 537 225q224 0 382 -80t245 -237z" />
    <glyph glyph-name="H" unicode="H" horiz-adv-x="1427" 
d="M182 0v1464h133v-594h797v594h133v-1464h-133v756h-797v-756h-133z" />
    <glyph glyph-name="I" unicode="I" horiz-adv-x="498" 
d="M182 0v1464h133v-1464h-133z" />
    <glyph glyph-name="J" unicode="J" horiz-adv-x="764" 
d="M467 401v1063h133v-1149q0 -175 -78.5 -264.5t-232.5 -89.5q-187 0 -283 152l94 86q42 -57 87.5 -84t97.5 -27q98 0 140 70t42 243z" />
    <glyph glyph-name="K" unicode="K" horiz-adv-x="1176" 
d="M182 0v1464h133v-686l662 686h174l-694 -700l727 -764h-193l-676 743v-743h-133z" />
    <glyph glyph-name="L" unicode="L" horiz-adv-x="846" 
d="M182 0v1464h133v-1339h502v-125h-635z" />
    <glyph glyph-name="M" unicode="M" horiz-adv-x="1712" 
d="M850 -57l-514 1175l-111 -1118h-137l199 1526l561 -1303l582 1303l188 -1526h-137l-109 1118z" />
    <glyph glyph-name="N" unicode="N" horiz-adv-x="1526" 
d="M182 0v1526l1037 -1225v1163h124v-1507l-1036 1227v-1184h-125z" />
    <glyph glyph-name="O" unicode="O" horiz-adv-x="1792" 
d="M895 80q131 0 246 47.5t209 140.5q91 94 139.5 211.5t48.5 249.5q0 133 -47.5 250t-140.5 211q-91 93 -207 140.5t-248 47.5q-131 0 -245 -47.5t-208 -140.5q-93 -96 -140.5 -211.5t-47.5 -249.5q0 -133 47.5 -250t140.5 -211q186 -188 453 -188zM1679 729
q0 -156 -58.5 -295t-170.5 -248q-114 -111 -255 -168t-300 -57t-300 57t-253 168q-112 112 -170.5 249.5t-58.5 293.5q0 158 58.5 296.5t170.5 250.5q111 109 251 165t302 56q163 0 303.5 -56t251.5 -165q112 -112 170.5 -250.5t58.5 -296.5z" />
    <glyph glyph-name="P" unicode="P" 
d="M182 0v1464h267q156 0 232 -17q73 -16 130 -56q69 -51 107 -137.5t38 -192.5q0 -105 -28.5 -181t-88.5 -125.5t-152 -73.5t-218 -24h-154v-657h-133zM315 774h91q243 0 325 61q84 61 84 216q0 132 -76 217q-40 44 -106 62q-68 18 -227 18h-91v-574z" />
    <glyph glyph-name="Q" unicode="Q" horiz-adv-x="1792" 
d="M926 600h164l272 -317q176 191 176 448q0 133 -48.5 249.5t-139.5 209.5t-208 141.5t-247 48.5q-129 0 -244 -48t-209 -142q-91 -94 -138.5 -209.5t-47.5 -249.5t47.5 -250t138.5 -209q94 -93 209 -140.5t248 -47.5q106 0 202 31.5t165 89.5zM1692 -102h-162l-178 206
q-106 -69 -220.5 -102t-248.5 -33q-156 0 -294 56.5t-247 162.5q-112 112 -170.5 249.5t-58.5 293.5q0 157 58.5 295.5t170.5 247.5q111 109 252 166t301 57t302 -57t253 -166q112 -109 170.5 -247.5t58.5 -295.5q0 -317 -235 -545z" />
    <glyph glyph-name="R" unicode="R" horiz-adv-x="1081" 
d="M315 1348v-541h134q185 0 259 59q74 60 74 203q0 151 -76 215t-257 64h-134zM1071 0h-162l-514 698h-80v-698h-133v1464h269q239 0 357 -98.5t118 -300.5q0 -172 -102 -269q-101 -98 -279 -98z" />
    <glyph glyph-name="S" unicode="S" horiz-adv-x="1020" 
d="M70 246l114 61q32 -109 110 -168t189 -59q69 0 124 21t93 61t58 97.5t20 129.5q0 105 -53 176q-53 70 -225 162q-220 117 -294 206q-73 88 -73 214q0 156 105 254q107 98 274 98q222 0 324 -186l-103 -62q-32 63 -90 96t-139 33q-54 0 -97.5 -16.5t-74.5 -47t-47.5 -74
t-16.5 -97.5q0 -153 254 -287q23 -12 40.5 -21t29.5 -16q187 -103 250 -195t63 -237q0 -198 -115 -313t-313 -115q-145 0 -247 71t-160 214z" />
    <glyph glyph-name="T" unicode="T" horiz-adv-x="1018" 
d="M442 0v1339h-403v125h940v-125h-404v-1339h-133z" />
    <glyph glyph-name="U" unicode="U" horiz-adv-x="1417" 
d="M176 1464h131v-956q0 -218 98.5 -323t303.5 -105q202 0 300.5 105t98.5 323v956h133v-913q0 -297 -132 -443.5t-400 -146.5q-269 0 -401 146.5t-132 443.5v913z" />
    <glyph glyph-name="V" unicode="V" horiz-adv-x="1128" 
d="M555 -57l-573 1521h153l422 -1192l444 1192h146z" />
    <glyph glyph-name="W" unicode="W" horiz-adv-x="1839" 
d="M530 -57l-505 1521h139l366 -1169l390 1227l405 -1217l352 1159h138l-490 -1521l-405 1243z" />
    <glyph glyph-name="X" unicode="X" horiz-adv-x="991" 
d="M121 0h-146l447 770l-404 694h150l330 -581l333 581h144l-404 -690l445 -774h-148l-372 649z" />
    <glyph glyph-name="Y" unicode="Y" horiz-adv-x="1118" 
d="M496 0v674l-486 790h160l393 -671l395 671h152l-481 -790v-674h-133z" />
    <glyph glyph-name="Z" unicode="Z" horiz-adv-x="1147" 
d="M25 0l870 1343h-743v121h970l-866 -1341h778v-123h-1009z" />
    <glyph glyph-name="bracketleft" unicode="[" horiz-adv-x="559" 
d="M221 1497h291v-98h-174v-1712h174v-99h-291v1909z" />
    <glyph glyph-name="backslash" unicode="\" horiz-adv-x="825" 
d="M717 -190l-717 1687h109l716 -1687h-108z" />
    <glyph glyph-name="bracketright" unicode="]" horiz-adv-x="559" 
d="M338 1497v-1909h-291v99h176v1712h-176v98h291z" />
    <glyph glyph-name="asciicircum" unicode="^" horiz-adv-x="2048" 
d="M1081 1458l541 -557h-125l-473 469l-475 -469h-125l539 557h118z" />
    <glyph glyph-name="underscore" unicode="_" 
d="M1024 -403v-80h-1024v80h1024z" />
    <glyph glyph-name="grave" unicode="`" 
d="M645 1030h-94l-283 350h164z" />
    <glyph glyph-name="a" unicode="a" horiz-adv-x="1108" 
d="M221 434q0 -173 77 -265.5t222 -92.5q140 0 220 101q81 102 81 280q0 162 -80 256q-79 94 -219 94q-139 0 -220 -100q-81 -99 -81 -273zM819 0v162q-45 -99 -123.5 -150t-187.5 -51q-191 0 -308 131q-116 131 -116 346q0 214 115 347q115 135 297 135q114 0 196 -49
t127 -146v162h123v-887h-123z" />
    <glyph glyph-name="b" unicode="b" horiz-adv-x="1108" 
d="M883 434q0 174 -81 273q-81 100 -220 100t-218 -94q-79 -92 -79 -256q0 -177 80 -280q81 -101 221 -101q144 0 220.5 92t76.5 266zM287 0h-123v1550h123v-825q45 97 126 146t195 49q181 0 297 -135q115 -133 115 -347q0 -216 -117 -346q-116 -131 -307 -131
q-108 0 -186 50.5t-123 150.5v-162z" />
    <glyph glyph-name="c" unicode="c" horiz-adv-x="934" 
d="M854 725q-125 86 -276 86q-166 0 -263 -106q-98 -106 -98 -281q0 -156 101 -257q103 -101 260 -101q72 0 145 24.5t145 75.5v-135q-131 -74 -313 -74q-203 0 -333 133t-130 342q0 217 135 352q136 136 353 136q81 0 151 -15.5t125 -44.5z" />
    <glyph glyph-name="d" unicode="d" horiz-adv-x="1108" 
d="M225 434q0 -173 77 -265.5t222 -92.5q139 0 219 101q80 103 80 280q0 164 -79 256q-79 94 -218 94t-220 -100q-81 -99 -81 -273zM821 0v162q-45 -100 -123 -150.5t-186 -50.5q-191 0 -308 131q-116 131 -116 346q0 214 115 347q115 135 297 135q114 0 195 -49t126 -146
v825h125v-1550h-125z" />
    <glyph glyph-name="e" unicode="e" horiz-adv-x="1018" 
d="M780 545q-9 123 -80.5 189.5t-195.5 66.5q-112 0 -188 -70q-75 -71 -87 -186h551zM926 440h-705q4 -172 86 -270q81 -98 217 -98q198 0 295 213l113 -62q-68 -135 -166.5 -198.5t-241.5 -63.5q-195 0 -316 130q-120 130 -120 343q0 218 119 352q120 134 313 134
q184 0 295 -124q111 -123 111 -329v-27z" />
    <glyph glyph-name="f" unicode="f" horiz-adv-x="530" 
d="M193 0v782h-166v105h166v256q0 266 50 346t183 80q33 0 63 -5.5t56 -15.5l-23 -108q-48 24 -88 24q-65 0 -92 -52q-27 -51 -27 -189v-336h195v-105h-195v-782h-122z" />
    <glyph glyph-name="g" unicode="g" horiz-adv-x="1108" 
d="M944 887v-733q0 -88 -2.5 -154.5t-7.5 -112.5q-9 -93 -31 -137q-91 -196 -381 -196q-353 0 -395 276h154q15 -82 78.5 -124t172.5 -42q82 0 147.5 29t98.5 80q22 32 31 77q10 41 10 134v47v133q-41 -95 -126 -149q-84 -54 -193 -54q-187 0 -299 130q-111 130 -111 349
q0 217 114 348q114 132 302 132q105 0 190 -55q85 -54 123 -144v166h125zM520 807q-139 0 -218 -99q-79 -97 -79 -270q0 -171 75 -267q77 -95 210 -95q141 0 227 101t86 272q0 168 -80 263t-221 95z" />
    <glyph glyph-name="h" unicode="h" horiz-adv-x="1067" 
d="M164 0v1550h117v-800q108 170 313 170q75 0 134.5 -21.5t100.5 -62.5t62.5 -100t21.5 -134v-602h-125v547q0 134 -55 198t-172 64q-142 0 -208 -83t-66 -263v-463h-123z" />
    <glyph glyph-name="i" unicode="i" horiz-adv-x="471" 
d="M141 1233q0 19 7.5 36.5t20.5 30t30 20t37 7.5q19 0 36.5 -7.5t31 -20t21 -30t7.5 -36.5q0 -40 -27 -67t-69 -27q-40 0 -67.5 27t-27.5 67zM172 0v887h127v-887h-127z" />
    <glyph glyph-name="j" unicode="j" horiz-adv-x="471" 
d="M141 1233q0 19 7.5 36.5t20.5 30t30 20t37 7.5q19 0 36.5 -7.5t31 -20t21 -30t7.5 -36.5q0 -40 -27 -67t-69 -27q-40 0 -67.5 27t-27.5 67zM172 -446v1333h127v-1333h-127z" />
    <glyph glyph-name="k" unicode="k" horiz-adv-x="938" 
d="M164 0v1550h123v-1056l442 393h170l-475 -398l510 -489h-170l-477 459v-459h-123z" />
    <glyph glyph-name="l" unicode="l" horiz-adv-x="471" 
d="M299 0h-127v1550h127v-1550z" />
    <glyph glyph-name="m" unicode="m" horiz-adv-x="1616" 
d="M287 0h-123v887h123v-139q45 85 116.5 128.5t165.5 43.5q97 0 165.5 -44t105.5 -131q106 175 309 175q141 0 222 -86t81 -234v-600h-123v551q0 262 -213 262q-127 0 -186.5 -83t-59.5 -263v-467h-122v551q0 136 -51 199t-158 63q-130 0 -191 -84t-61 -262v-467z" />
    <glyph glyph-name="n" unicode="n" horiz-adv-x="1067" 
d="M164 0v887h117v-137q108 170 313 170q75 0 134.5 -21.5t100.5 -62.5t62.5 -100t21.5 -134v-602h-125v547q0 134 -55 198t-172 64q-142 0 -208 -83t-66 -263v-463h-123z" />
    <glyph glyph-name="o" unicode="o" horiz-adv-x="1143" 
d="M571 76q146 0 247 105q102 106 102 259q0 154 -101 260q-101 105 -248 105t-247 -105q-101 -106 -101 -260q0 -152 101 -259q100 -105 247 -105zM567 -39q-96 0 -182 37.5t-158 107.5q-67 66 -102 151.5t-35 184.5q0 97 36 184t103 154q69 69 155 104.5t183 35.5
q99 0 187 -35.5t157 -104.5t105.5 -155t36.5 -183t-35.5 -183t-104.5 -153q-70 -70 -159.5 -107.5t-186.5 -37.5z" />
    <glyph glyph-name="p" unicode="p" horiz-adv-x="1108" 
d="M883 438q0 173 -79 270q-78 99 -216 99q-142 0 -223 -96q-80 -95 -80 -262q0 -169 86 -272q87 -101 229 -101q67 0 119.5 24.5t89 71t55.5 113.5t19 153zM164 -446v1333h119v-166q51 97 132.5 148t184.5 51q187 0 301 -132q115 -130 115 -348q0 -219 -112 -349t-298 -130
q-108 0 -189.5 51.5t-133.5 151.5v-610h-119z" />
    <glyph glyph-name="q" unicode="q" horiz-adv-x="1108" 
d="M520 807q-139 0 -218 -99q-79 -97 -79 -270q0 -171 75 -267q77 -95 210 -95q141 0 227 101t86 272q0 168 -80 263t-221 95zM944 -446h-119v610q-52 -100 -134 -151.5t-191 -51.5q-186 0 -298 130t-112 349q0 217 114 348q114 132 302 132q103 0 185.5 -51.5t133.5 -147.5
v166h119v-1333z" />
    <glyph glyph-name="r" unicode="r" horiz-adv-x="645" 
d="M287 709q34 58 67.5 98.5t65.5 64.5q66 48 153 48q50 0 105 -19l-40 -116q-20 6 -41.5 10t-41.5 4q-110 0 -190 -104q-78 -104 -78 -259v-436h-123v887h123v-178z" />
    <glyph glyph-name="s" unicode="s" horiz-adv-x="782" 
d="M63 158l117 67q59 -149 219 -149q78 0 124 39.5t46 105.5q0 103 -181 173q-20 7 -30 12q-70 28 -119 56t-77 57q-56 59 -56 145q0 113 80 185q79 73 207 73q109 0 184.5 -46.5t110.5 -134.5l-113 -63q-21 63 -69.5 96t-120.5 33q-63 0 -106 -38q-41 -38 -41 -93t41 -91
q39 -35 170 -79q147 -51 196 -111q51 -60 51 -166q0 -122 -87 -195q-86 -73 -234 -73q-114 0 -195 51.5t-117 145.5z" />
    <glyph glyph-name="t" unicode="t" horiz-adv-x="508" 
d="M190 782h-163v105h163v364h121v-364h178v-105h-178v-782h-121v782z" />
    <glyph glyph-name="u" unicode="u" horiz-adv-x="1079" 
d="M287 887v-443q0 -203 57 -285q59 -83 195 -83t195 84q59 85 59 284v443h122v-506q0 -208 -94.5 -314t-279.5 -106q-186 0 -281.5 106t-95.5 314v506h123z" />
    <glyph glyph-name="v" unicode="v" horiz-adv-x="874" 
d="M31 887h135l272 -672l271 672h137l-408 -944z" />
    <glyph glyph-name="w" unicode="w" horiz-adv-x="1327" 
d="M379 -57l-354 944h129l231 -639l279 686l278 -686l232 639h129l-355 -944l-282 706z" />
    <glyph glyph-name="x" unicode="x" horiz-adv-x="807" 
d="M31 887h153l217 -326l217 326h150l-299 -426l330 -461h-152l-248 358l-245 -358h-154l332 461z" />
    <glyph glyph-name="y" unicode="y" horiz-adv-x="825" 
d="M43 887h131l254 -694l234 694h131l-459 -1333h-127l155 452z" />
    <glyph glyph-name="z" unicode="z" horiz-adv-x="780" 
d="M23 0l495 776h-461v111h674l-491 -776h505v-111h-722z" />
    <glyph glyph-name="braceleft" unicode="{" 
d="M848 1389h-37q-136 0 -182 -52q-47 -52 -47 -213v-241q0 -175 -43 -248q-44 -74 -152 -105q108 -31 152 -104q43 -71 43 -248v-241q0 -163 46 -212q46 -51 181 -51h39v-88h-43q-189 0 -258 75q-68 74 -68 300v240q0 158 -58 222t-200 64q-7 0 -21.5 -1t-23.5 -1v90
q10 -1 20.5 -1.5t28.5 -0.5q139 0 196 64q58 64 58 223v240q0 226 68 302q69 75 258 75h43v-88z" />
    <glyph glyph-name="bar" unicode="|" 
d="M557 1565v-2048h-90v2048h90z" />
    <glyph glyph-name="braceright" unicode="}" 
d="M545 1100v-240q0 -159 58 -223t200 -64q7 0 21.5 1t23.5 1v-90q-9 0 -23.5 1t-21.5 1q-142 0 -200 -64t-58 -222v-240q0 -227 -69 -300q-68 -75 -257 -75h-43v88h39q133 0 180 51q47 50 47 212v241q0 174 43 247t154 105q-111 32 -154 105t-43 248v241q0 161 -47 213
q-46 52 -182 52h-37v88h43q189 0 257 -75q69 -75 69 -302z" />
    <glyph glyph-name="asciitilde" unicode="~" horiz-adv-x="1706" 
d="M1530 647q-106 -75 -201.5 -111t-185.5 -36q-101 0 -266 61q-8 3 -13.5 5t-8.5 3q-12 4 -33 12q-167 60 -257 60q-42 0 -85 -9t-90 -28.5t-99.5 -50t-112.5 -72.5v92q106 75 201 110.5t186 35.5q101 0 271 -61q6 -2 10.5 -4t8.5 -3q4 -2 10.5 -4t16.5 -6q167 -61 261 -61
q83 0 175 37.5t212 121.5v-92z" />
    <glyph glyph-name="euro" horiz-adv-x="1180" 
d="M1108 250l-4 -152q-76 -64 -173 -100q-95 -37 -188 -37q-225 0 -381 158q-155 158 -194 430h-164l21 98h132q0 12 -0.5 26.5t-0.5 45.5q0 17 0.5 36.5t2.5 53.5h-155l21 100h147q47 261 201 415q157 155 370 155q211 0 359 -154v-149q-84 94 -169 139t-179 45
q-175 0 -293 -120q-117 -117 -158 -331h651l-28 -100h-635q-3 -34 -3.5 -53.5t-0.5 -36.5q0 -31 0.5 -45.5t1.5 -26.5h588l-31 -98h-547q35 -218 153 -344q119 -125 287 -125q100 0 195.5 44t173.5 126z" />
    <glyph glyph-name="euro" unicode="&#x20ac;" horiz-adv-x="1180" 
d="M1108 250l-4 -152q-76 -64 -173 -100q-95 -37 -188 -37q-225 0 -381 158q-155 158 -194 430h-164l21 98h132q0 12 -0.5 26.5t-0.5 45.5q0 17 0.5 36.5t2.5 53.5h-155l21 100h147q47 261 201 415q157 155 370 155q211 0 359 -154v-149q-84 94 -169 139t-179 45
q-175 0 -293 -120q-117 -117 -158 -331h651l-28 -100h-635q-3 -34 -3.5 -53.5t-0.5 -36.5q0 -31 0.5 -45.5t1.5 -26.5h588l-31 -98h-547q35 -218 153 -344q119 -125 287 -125q100 0 195.5 44t173.5 126z" />
    <glyph glyph-name="nonbreakingspace" unicode="&#xa0;" horiz-adv-x="1180" 
 />
    <glyph glyph-name="exclamdown" unicode="&#xa1;" horiz-adv-x="635" 
d="M256 1157h123v-1157h-123v1157zM215 1395q0 43 29.5 72.5t72.5 29.5q21 0 40 -8t33 -21.5t22 -32.5t8 -40t-8 -40t-22 -33t-33 -22t-40 -8t-40 8t-32.5 22t-21.5 33t-8 40z" />
    <glyph glyph-name="cent" unicode="&#xa2;" horiz-adv-x="1180" 
d="M567 1110q-137 -14 -225 -117q-88 -101 -88 -245q0 -153 83 -254q84 -99 230 -119v735zM930 1028q-125 80 -282 86l-1 -745q99 11 167 34.5t116 61.5v-131q-57 -35 -127 -52.5t-155 -19.5l-1 -205h-80v207q-195 10 -321 142q-123 132 -123 329q0 199 119 330
q120 131 325 156v161h80v-159q134 0 283 -60v-135z" />
    <glyph glyph-name="sterling" unicode="&#xa3;" horiz-adv-x="1180" 
d="M100 20q71 134 195 170q42 57 61 107t19 98q0 45 -11 93.5t-34 111.5h-230v90h185q-103 214 -103 371q0 184 125 301q124 117 324 117q202 0 318 -113q116 -112 124 -315l-127 -22q-2 78 -23.5 140t-61.5 105t-97 65.5t-129 22.5q-146 0 -232 -83t-86 -220
q0 -130 101 -369h389v-90h-358q20 -55 29 -98t9 -78q0 -143 -101 -229q90 -1 226 -59q136 -56 191 -56q61 0 112 34t99 109l88 -59q-55 -103 -126 -152t-165 -49q-84 0 -220 60q-135 61 -196 61q-60 0 -110.5 -31t-98.5 -94z" />
    <glyph glyph-name="currency" unicode="&#xa4;" horiz-adv-x="1180" 
d="M1108 250l-4 -152q-76 -64 -173 -100q-95 -37 -188 -37q-225 0 -381 158q-155 158 -194 430h-164l21 98h132q0 12 -0.5 26.5t-0.5 45.5q0 17 0.5 36.5t2.5 53.5h-155l21 100h147q47 261 201 415q157 155 370 155q211 0 359 -154v-149q-84 94 -169 139t-179 45
q-175 0 -293 -120q-117 -117 -158 -331h651l-28 -100h-635q-3 -34 -3.5 -53.5t-0.5 -36.5q0 -31 0.5 -45.5t1.5 -26.5h588l-31 -98h-547q35 -218 153 -344q119 -125 287 -125q100 0 195.5 44t173.5 126z" />
    <glyph glyph-name="yen" unicode="&#xa5;" horiz-adv-x="1182" 
d="M530 0v631h-497v98h456l-98 162h-358v100h293l-283 461h147l402 -676l412 676h135l-281 -461h289v-100h-352l-99 -162h451v-98h-490v-631h-127z" />
    <glyph glyph-name="brokenbar" unicode="&#xa6;" 
d="M557 408v-758h-90v758h90zM557 1432v-758h-90v758h90z" />
    <glyph glyph-name="section" unicode="&#xa7;" horiz-adv-x="1042" 
d="M526 254q114 0 194 80q81 81 81 196q0 122 -76 198q-77 77 -199 77q-114 0 -196 -80q-80 -80 -80 -195q0 -126 75 -201t201 -75zM176 -92l127 -1q6 -233 227 -233q105 0 163.5 56.5t58.5 156.5q0 82 -46 129q-45 49 -212 111q-63 23 -107 40.5t-71 30.5q-54 28 -83 54
q-60 54 -89 122t-29 156q0 123 72 216q71 92 198 133q-112 46 -165.5 118.5t-53.5 178.5q0 147 100 235t271 88q169 0 258.5 -85.5t89.5 -248.5v-20h-135q-11 246 -222 246q-98 0 -159 -58q-62 -59 -62 -149q0 -89 51 -144q52 -55 209 -112q203 -73 286 -163q81 -89 81 -230
q0 -136 -66.5 -225.5t-197.5 -131.5q217 -95 217 -305q0 -142 -100 -235q-99 -93 -255 -93q-163 0 -260 92q-96 91 -96 248v23z" />
    <glyph glyph-name="dieresis" unicode="&#xa8;" 
d="M590 1188q0 20 8 37.5t21.5 31t31 21.5t37.5 8t37.5 -8t30.5 -21.5t20.5 -31t7.5 -37.5q0 -42 -27 -69t-69 -27t-70 27t-28 69zM240 1188q0 20 7.5 37.5t20.5 31t30.5 21.5t37.5 8t37.5 -8t31 -21.5t21.5 -31t8 -37.5q0 -42 -28 -69t-70 -27t-69 26.5t-27 69.5z" />
    <glyph glyph-name="copyright" unicode="&#xa9;" horiz-adv-x="1706" 
d="M1081 918q-20 81 -79.5 126.5t-147.5 45.5q-127 0 -196.5 -97t-69.5 -274q0 -169 71 -267q72 -98 195 -98q45 0 85 13.5t71 39t53 61t31 79.5h102q-11 -123 -108 -201q-98 -78 -240 -78q-173 0 -275 123q-102 124 -102 334q0 204 107 328q106 123 282 123q132 0 222 -72
q90 -71 104 -186h-105zM1511 721q0 134 -48.5 252.5t-141.5 212.5q-96 96 -215 145t-254 49q-134 0 -252 -48.5t-209 -141.5q-96 -97 -146 -217.5t-50 -251.5t50 -250t144 -213t213 -144.5t250 -50.5t251.5 50.5t217.5 146.5q94 93 142 209.5t48 251.5zM852 1452
q150 0 282.5 -54.5t237.5 -160.5q103 -103 157 -235t54 -281q0 -151 -53 -280t-158 -232q-108 -106 -241.5 -162.5t-278.5 -56.5q-146 0 -277 55.5t-237 161.5q-106 105 -160.5 236t-54.5 278q0 146 55.5 279t161.5 241q102 103 232 157t280 54z" />
    <glyph glyph-name="ordfeminine" unicode="&#xaa;" horiz-adv-x="831" 
d="M166 1147q0 -121 58 -185.5t167 -64.5q52 0 93.5 18.5t71 53t45 83.5t15.5 111q0 57 -15.5 103t-44.5 77.5t-71 48.5t-94 17q-103 0 -165 -71q-60 -71 -60 -191zM614 844v112q-34 -69 -93 -104t-140 -35q-144 0 -231 91t-87 243q0 148 86 242q87 94 224 94
q85 0 146.5 -34.5t94.5 -100.5v112h93v-620h-93z" />
    <glyph glyph-name="guillemotleft" unicode="&#xab;" horiz-adv-x="782" 
d="M655 49l-254 387l246 395l86 -53l-211 -344l215 -332zM297 49l-252 387l244 395l86 -53l-209 -344l213 -332z" />
    <glyph glyph-name="logicalnot" unicode="&#xac;" horiz-adv-x="1706" 
d="M1452 856v-502h-78v420h-1120v82h1198z" />
    <glyph glyph-name="sfthyphen" unicode="&#xad;" horiz-adv-x="711" 
d="M137 506h436v-129h-436v129z" />
    <glyph glyph-name="registered" unicode="&#xae;" horiz-adv-x="1706" 
d="M852 1077h-168v-313h168q145 0 199 36q55 36 55 126q0 78 -61 114.5t-193 36.5zM874 1155q180 0 264.5 -56.5t84.5 -176.5q0 -88 -56 -149t-147 -71l190 -393h-131l-182 377h-213v-377h-115v846h305zM1511 721q0 134 -48.5 252.5t-141.5 212.5q-96 96 -215 145t-254 49
q-134 0 -252 -48.5t-209 -141.5q-96 -97 -146 -217.5t-50 -251.5t50 -250t144 -213t213 -144.5t250 -50.5t251.5 50.5t217.5 146.5q94 93 142 209.5t48 251.5zM852 1452q150 0 282.5 -54.5t237.5 -160.5q103 -103 157 -235t54 -281q0 -151 -53 -280t-158 -232
q-108 -106 -241.5 -162.5t-278.5 -56.5q-146 0 -277 55.5t-237 161.5q-106 105 -160.5 236t-54.5 278q0 146 55.5 279t161.5 241q102 103 232 157t280 54z" />
    <glyph glyph-name="macron" unicode="&#xaf;" 
d="M254 1118v117h516v-117h-516z" />
    <glyph glyph-name="degree" unicode="&#xb0;" horiz-adv-x="674" 
d="M551 1176q0 87 -63 150t-150 63q-89 0 -151 -62t-62 -151t62 -151q64 -62 151 -62q88 0 150 62q63 61 63 151zM338 1450q112 0 192 -81q80 -80 80 -193q0 -114 -80 -194q-79 -79 -194 -79t-194 79t-79 194q0 114 80 194q82 80 195 80z" />
    <glyph glyph-name="plusminus" unicode="&#xb1;" horiz-adv-x="1706" 
d="M1452 141v-82h-1198v82h1198zM893 1161v-354h559v-80h-559v-352h-80v352h-559v80h559v354h80z" />
    <glyph glyph-name="twosuperior" unicode="&#xb2;" horiz-adv-x="778" 
d="M668 645v-70h-621l209 207l60 60q262 259 262 370q0 79 -60 129q-59 50 -153 50q-100 0 -155.5 -55t-55.5 -152h-86v8q0 125 81 197q82 73 224 73q135 0 217 -67q82 -66 82 -176q0 -139 -221 -357l-13 -12l-213 -205h443z" />
    <glyph glyph-name="threesuperior" unicode="&#xb3;" horiz-adv-x="778" 
d="M160 797q12 -174 211 -174q100 0 157.5 49t57.5 137t-57 138t-160 50q-16 0 -23.5 -0.5t-13.5 -0.5v75q7 0 21.5 -1t21.5 -1q93 0 144.5 42.5t51.5 117.5t-51.5 119.5t-138.5 44.5q-78 0 -125.5 -37.5t-56.5 -103.5l-95 -1q11 98 85 154q75 57 192 57q125 0 203 -63
q78 -62 78 -164q0 -75 -44.5 -128t-123.5 -75q88 -28 136 -86t48 -137q0 -116 -83 -187q-83 -69 -224 -69q-140 0 -218 63t-87 181h94z" />
    <glyph glyph-name="acute" unicode="&#xb4;" 
d="M379 1030l213 350h164l-283 -350h-94z" />
    <glyph glyph-name="mu" unicode="&#xb5;" horiz-adv-x="1094" 
d="M326 1063l-123 -590q-9 -43 -13 -77t-4 -64q0 -127 59.5 -192.5t174.5 -65.5q128 0 219.5 108.5t136.5 313.5l125 567h121l-166 -786q-1 -5 -2 -10.5t-3 -13.5q-20 -94 -20 -112q0 -63 68 -63q9 0 18.5 0.5t20.5 1.5l-18 -96q-2 -1 -4 -1t-4 -1q-25 -5 -41.5 -8t-26.5 -3
q-69 0 -101 31.5t-32 95.5q0 7 0.5 16t3.5 29q-43 -84 -123 -128t-189 -44q-97 0 -169.5 45.5t-104.5 126.5l-119 -567h-121l316 1487h121z" />
    <glyph glyph-name="paragraph" unicode="&#xb6;" 
d="M932 1415h-129v-1415h-70v1415h-192v-1415h-70v782q-174 7 -278 102q-103 94 -103 246q0 157 108 253q109 96 287 96h447v-64z" />
    <glyph glyph-name="glyph122" unicode="&#xb7;" horiz-adv-x="590" 
d="M193 719q0 43 29.5 72.5t72.5 29.5t72.5 -29.5t29.5 -72.5q0 -21 -8 -40t-21.5 -33t-32.5 -22t-40 -8t-40 8t-32.5 22t-21.5 33t-8 40z" />
    <glyph glyph-name="cedilla" unicode="&#xb8;" 
d="M301 -379v70q49 -10 85.5 -16.5t59.5 -9.5q23 -4 43 -5.5t37 -1.5q125 0 125 88q0 90 -141 90q-6 0 -20 -1t-21 -1v166h61v-100h15q103 0 158 -39.5t55 -112.5q0 -164 -215 -164q-51 0 -109 9t-133 28z" />
    <glyph glyph-name="onesuperior" unicode="&#xb9;" horiz-adv-x="778" 
d="M360 575v799h-174l41 72h217v-871h-84z" />
    <glyph glyph-name="ordmasculine" unicode="&#xba;" horiz-adv-x="858" 
d="M428 897q109 0 186 74q76 73 76 182q0 107 -76 180q-76 74 -186 74q-109 0 -185 -74q-75 -74 -75 -180q0 -107 75 -182q77 -74 185 -74zM426 817q-72 0 -137 25t-119 76q-51 48 -76.5 107t-25.5 128t26.5 129.5t77.5 108.5q51 46 116 71t138 25q75 0 140.5 -24t117.5 -72
q52 -49 79.5 -110t27.5 -128t-27 -127t-78 -108q-54 -49 -120.5 -75t-139.5 -26z" />
    <glyph glyph-name="guillemotright" unicode="&#xbb;" horiz-adv-x="782" 
d="M127 49l-82 53l215 332l-211 344l86 53l244 -395zM485 49l-84 53l215 332l-208 344l86 53l243 -395z" />
    <glyph glyph-name="onequarter" unicode="&#xbc;" horiz-adv-x="1829" 
d="M1540 272v369l-291 -369h291zM1540 0v207h-416l500 633v-568h94v-65h-94v-207h-84zM401 -39l918 1518h106l-915 -1518h-109zM344 633v745h-168l41 66h207v-811h-80z" />
    <glyph glyph-name="onehalf" unicode="&#xbd;" horiz-adv-x="1829" 
d="M1722 63v-63h-592l199 195q17 16 53 50q254 245 254 351q0 72 -57 119q-58 47 -147 47q-94 0 -146.5 -52t-52.5 -143h-82v8q0 59 20 105.5t57.5 79t91.5 50t122 17.5q130 0 207 -62t77 -165q0 -130 -218 -339l-5 -5l-203 -193h422zM401 -39l918 1518h106l-915 -1518h-109
zM344 633v745h-168l41 66h207v-811h-80z" />
    <glyph glyph-name="threequarters" unicode="&#xbe;" horiz-adv-x="1829" 
d="M1540 272v369l-291 -369h291zM1540 0v207h-416l500 633v-568h94v-65h-94v-207h-84zM401 -39l918 1518h106l-915 -1518h-109zM152 840q6 -81 57 -121.5t145 -40.5q97 0 151 45.5t54 126.5q0 85 -54.5 130.5t-154.5 45.5h-35v70q8 0 22 -1t21 -1q88 0 137.5 39t49.5 108
q0 70 -49 112t-131 42q-75 0 -121 -34t-54 -97h-89q4 45 24.5 81t54.5 61.5t81 39.5t104 14q118 0 192 -59t74 -152q0 -72 -42 -121t-118 -69q85 -25 130.5 -79.5t45.5 -129.5q0 -109 -80 -175q-80 -65 -213 -65q-132 0 -207 59t-86 171h91z" />
    <glyph glyph-name="questiondown" unicode="&#xbf;" horiz-adv-x="1053" 
d="M639 1395q0 -21 -8 -40t-21.5 -33t-32.5 -22t-40 -8q-43 0 -72 29t-29 74q0 43 29 72.5t72 29.5t72.5 -29.5t29.5 -72.5zM750 365h118v-33q0 -171 -98 -272q-98 -99 -264 -99q-152 0 -243 91t-91 243q0 111 48 186q49 76 196 170q13 8 31.5 20t42.5 27q198 121 198 230
q0 36 -12 65.5t-34.5 50t-53.5 32t-70 11.5q-90 0 -138 -46.5t-48 -131.5v-18h-111v24q0 136 80 207.5t231 71.5q125 0 203 -75t78 -193q0 -88 -46 -155q-46 -65 -171 -148q-13 -8 -31 -20t-41 -27q-227 -143 -227 -273q0 -97 58 -155t157 -58q115 0 176.5 69.5t61.5 198.5
v7z" />
    <glyph glyph-name="Agrave" unicode="&#xc0;" horiz-adv-x="1223" 
d="M356 610h510l-250 637zM-18 0l643 1522l616 -1522h-145l-187 496h-598l-194 -496h-135zM745 1608h-94l-283 350h164z" />
    <glyph glyph-name="Aacute" unicode="&#xc1;" horiz-adv-x="1223" 
d="M356 610h510l-250 637zM-18 0l643 1522l616 -1522h-145l-187 496h-598l-194 -496h-135zM479 1608l213 350h164l-283 -350h-94z" />
    <glyph glyph-name="Acircumflex" unicode="&#xc2;" horiz-adv-x="1223" 
d="M356 610h510l-250 637zM-18 0l643 1522l616 -1522h-145l-187 496h-598l-194 -496h-135zM325 1608l213 350h146l213 -350h-92l-193 250l-195 -250h-92z" />
    <glyph glyph-name="Atilde" unicode="&#xc3;" horiz-adv-x="1223" 
d="M356 610h510l-250 637zM-18 0l643 1522l616 -1522h-145l-187 496h-598l-194 -496h-135zM903 1872q-25 -91 -75.5 -137.5t-123.5 -46.5q-32 0 -65 10l-80 27q-26 8 -58 8q-61 0 -92 -61h-88q22 88 72.5 133t126.5 45q33 0 59 -8l78 -27q33 -10 61 -10q73 0 97 67h88z" />
    <glyph glyph-name="Adieresis" unicode="&#xc4;" horiz-adv-x="1223" 
d="M356 610h510l-250 637zM-18 0l643 1522l616 -1522h-145l-187 496h-598l-194 -496h-135zM690 1766q0 20 8 37.5t21.5 31t31 21.5t37.5 8t37.5 -8t30.5 -21.5t20.5 -31t7.5 -37.5q0 -42 -27 -69t-69 -27t-70 27t-28 69zM340 1766q0 20 7.5 37.5t20.5 31t30.5 21.5t37.5 8
t37.5 -8t31 -21.5t21.5 -31t8 -37.5q0 -42 -28 -69t-70 -27t-69 26.5t-27 69.5z" />
    <glyph glyph-name="Aring" unicode="&#xc5;" horiz-adv-x="1223" 
d="M492 1737q0 -55 38 -95q40 -38 95 -38q54 0 94 38q39 39 39 95t-39 94q-38 39 -94 39t-95 -39q-38 -38 -38 -94zM389 1737q0 99 68 167t168 68q99 0 167 -68t68 -167q0 -98 -68 -168q-68 -68 -167 -68q-98 0 -168 68q-68 70 -68 168zM356 610h510l-250 633zM-18 0
l624 1460h39l596 -1460h-145l-187 496h-598l-194 -496h-135z" />
    <glyph glyph-name="AE" unicode="&#xc6;" horiz-adv-x="1688" 
d="M348 610h457l-217 662zM135 0h-127l529 1464h618l41 -125h-506l158 -458h526l43 -125h-526l215 -631h532l41 -125h-665l-170 496h-533z" />
    <glyph glyph-name="Ccedilla" unicode="&#xc7;" horiz-adv-x="1464" 
d="M1358 1196q-109 94 -222.5 139t-240.5 45q-284 0 -462 -180q-177 -180 -177 -469q0 -146 43 -261t133 -206q88 -88 201 -134t244 -46q127 0 246 42.5t227 127.5v-156q-109 -66 -229 -101.5t-238 -35.5q-159 0 -304 57q-146 57 -249 160q-108 106 -162.5 245.5
t-54.5 307.5q0 165 56.5 306.5t162.5 244.5q105 102 248 158q145 57 303 57q281 0 477 -154zM649 -379v70q49 -10 85.5 -16.5t59.5 -9.5q23 -4 43 -5.5t37 -1.5q125 0 125 88q0 90 -141 90q-6 0 -20 -1t-21 -1v166h61v-100h15q103 0 158 -39.5t55 -112.5q0 -164 -215 -164
q-51 0 -109 9t-133 28z" />
    <glyph glyph-name="Egrave" unicode="&#xc8;" horiz-adv-x="1051" 
d="M182 0v1464h725v-125h-592v-458h592v-125h-592v-631h592v-125h-725zM674 1608h-94l-283 350h164z" />
    <glyph glyph-name="Eacute" unicode="&#xc9;" horiz-adv-x="1051" 
d="M182 0v1464h725v-125h-592v-458h592v-125h-592v-631h592v-125h-725zM408 1608l213 350h164l-283 -350h-94z" />
    <glyph glyph-name="Ecircumflex" unicode="&#xca;" horiz-adv-x="1051" 
d="M182 0v1464h725v-125h-592v-458h592v-125h-592v-631h592v-125h-725zM254 1608l213 350h146l213 -350h-92l-193 250l-195 -250h-92z" />
    <glyph glyph-name="Edieresis" unicode="&#xcb;" horiz-adv-x="1051" 
d="M182 0v1464h725v-125h-592v-458h592v-125h-592v-631h592v-125h-725zM619 1766q0 20 8 37.5t21.5 31t31 21.5t37.5 8t37.5 -8t30.5 -21.5t20.5 -31t7.5 -37.5q0 -42 -27 -69t-69 -27t-70 27t-28 69zM269 1766q0 20 7.5 37.5t20.5 31t30.5 21.5t37.5 8t37.5 -8t31 -21.5
t21.5 -31t8 -37.5q0 -42 -28 -69t-70 -27t-69 26.5t-27 69.5z" />
    <glyph glyph-name="Igrave" unicode="&#xcc;" horiz-adv-x="498" 
d="M182 0v1464h133v-1464h-133zM384 1608h-94l-283 350h164z" />
    <glyph glyph-name="Iacute" unicode="&#xcd;" horiz-adv-x="498" 
d="M182 0v1464h133v-1464h-133zM118 1608l213 350h164l-283 -350h-94z" />
    <glyph glyph-name="Icircumflex" unicode="&#xce;" horiz-adv-x="498" 
d="M182 0v1464h133v-1464h-133zM-36 1608l213 350h146l213 -350h-92l-193 250l-195 -250h-92z" />
    <glyph glyph-name="Idieresis" unicode="&#xcf;" horiz-adv-x="498" 
d="M182 0v1464h133v-1464h-133zM329 1766q0 20 8 37.5t21.5 31t31 21.5t37.5 8t37.5 -8t30.5 -21.5t20.5 -31t7.5 -37.5q0 -42 -27 -69t-69 -27t-70 27t-28 69zM-21 1766q0 20 7.5 37.5t20.5 31t30.5 21.5t37.5 8t37.5 -8t31 -21.5t21.5 -31t8 -37.5q0 -42 -28 -69t-70 -27
t-69 26.5t-27 69.5z" />
    <glyph glyph-name="Eth" unicode="&#xd0;" horiz-adv-x="1436" 
d="M326 115h184q230 0 323 25q96 25 162 87q185 173 185 506q0 170 -47 297.5t-140 208.5q-71 64 -172 89q-102 26 -354 26h-25h-116v-490h426v-102h-426v-647zM193 0v762h-193v102h193v600h227q307 0 435 -30q129 -30 218 -103q124 -100 187 -252t63 -348t-63.5 -347
t-188.5 -251q-90 -71 -215 -103q-122 -30 -412 -30h-24h-227z" />
    <glyph glyph-name="Ntilde" unicode="&#xd1;" horiz-adv-x="1526" 
d="M182 0v1526l1037 -1225v1163h124v-1507l-1036 1227v-1184h-125zM1055 1872q-25 -91 -75.5 -137.5t-123.5 -46.5q-32 0 -65 10l-80 27q-26 8 -58 8q-61 0 -92 -61h-88q22 88 72.5 133t126.5 45q33 0 59 -8l78 -27q33 -10 61 -10q73 0 97 67h88z" />
    <glyph glyph-name="Ograve" unicode="&#xd2;" horiz-adv-x="1792" 
d="M895 80q131 0 246 47.5t209 140.5q91 94 139.5 211.5t48.5 249.5q0 133 -47.5 250t-140.5 211q-91 93 -207 140.5t-248 47.5q-131 0 -245 -47.5t-208 -140.5q-93 -96 -140.5 -211.5t-47.5 -249.5q0 -133 47.5 -250t140.5 -211q186 -188 453 -188zM1679 729
q0 -156 -58.5 -295t-170.5 -248q-114 -111 -255 -168t-300 -57t-300 57t-253 168q-112 112 -170.5 249.5t-58.5 293.5q0 158 58.5 296.5t170.5 250.5q111 109 251 165t302 56q163 0 303.5 -56t251.5 -165q112 -112 170.5 -250.5t58.5 -296.5zM1030 1608h-94l-283 350h164z
" />
    <glyph glyph-name="Oacute" unicode="&#xd3;" horiz-adv-x="1792" 
d="M895 80q131 0 246 47.5t209 140.5q91 94 139.5 211.5t48.5 249.5q0 133 -47.5 250t-140.5 211q-91 93 -207 140.5t-248 47.5q-131 0 -245 -47.5t-208 -140.5q-93 -96 -140.5 -211.5t-47.5 -249.5q0 -133 47.5 -250t140.5 -211q186 -188 453 -188zM1679 729
q0 -156 -58.5 -295t-170.5 -248q-114 -111 -255 -168t-300 -57t-300 57t-253 168q-112 112 -170.5 249.5t-58.5 293.5q0 158 58.5 296.5t170.5 250.5q111 109 251 165t302 56q163 0 303.5 -56t251.5 -165q112 -112 170.5 -250.5t58.5 -296.5zM764 1608l213 350h164
l-283 -350h-94z" />
    <glyph glyph-name="Ocircumflex" unicode="&#xd4;" horiz-adv-x="1792" 
d="M895 80q131 0 246 47.5t209 140.5q91 94 139.5 211.5t48.5 249.5q0 133 -47.5 250t-140.5 211q-91 93 -207 140.5t-248 47.5q-131 0 -245 -47.5t-208 -140.5q-93 -96 -140.5 -211.5t-47.5 -249.5q0 -133 47.5 -250t140.5 -211q186 -188 453 -188zM1679 729
q0 -156 -58.5 -295t-170.5 -248q-114 -111 -255 -168t-300 -57t-300 57t-253 168q-112 112 -170.5 249.5t-58.5 293.5q0 158 58.5 296.5t170.5 250.5q111 109 251 165t302 56q163 0 303.5 -56t251.5 -165q112 -112 170.5 -250.5t58.5 -296.5zM610 1608l213 350h146l213 -350
h-92l-193 250l-195 -250h-92z" />
    <glyph glyph-name="Otilde" unicode="&#xd5;" horiz-adv-x="1792" 
d="M895 80q131 0 246 47.5t209 140.5q91 94 139.5 211.5t48.5 249.5q0 133 -47.5 250t-140.5 211q-91 93 -207 140.5t-248 47.5q-131 0 -245 -47.5t-208 -140.5q-93 -96 -140.5 -211.5t-47.5 -249.5q0 -133 47.5 -250t140.5 -211q186 -188 453 -188zM1679 729
q0 -156 -58.5 -295t-170.5 -248q-114 -111 -255 -168t-300 -57t-300 57t-253 168q-112 112 -170.5 249.5t-58.5 293.5q0 158 58.5 296.5t170.5 250.5q111 109 251 165t302 56q163 0 303.5 -56t251.5 -165q112 -112 170.5 -250.5t58.5 -296.5zM1188 1872
q-25 -91 -75.5 -137.5t-123.5 -46.5q-32 0 -65 10l-80 27q-26 8 -58 8q-61 0 -92 -61h-88q22 88 72.5 133t126.5 45q33 0 59 -8l78 -27q33 -10 61 -10q73 0 97 67h88z" />
    <glyph glyph-name="Odieresis" unicode="&#xd6;" horiz-adv-x="1792" 
d="M895 80q131 0 246 47.5t209 140.5q91 94 139.5 211.5t48.5 249.5q0 133 -47.5 250t-140.5 211q-91 93 -207 140.5t-248 47.5q-131 0 -245 -47.5t-208 -140.5q-93 -96 -140.5 -211.5t-47.5 -249.5q0 -133 47.5 -250t140.5 -211q186 -188 453 -188zM1679 729
q0 -156 -58.5 -295t-170.5 -248q-114 -111 -255 -168t-300 -57t-300 57t-253 168q-112 112 -170.5 249.5t-58.5 293.5q0 158 58.5 296.5t170.5 250.5q111 109 251 165t302 56q163 0 303.5 -56t251.5 -165q112 -112 170.5 -250.5t58.5 -296.5zM975 1766q0 20 8 37.5t21.5 31
t31 21.5t37.5 8t37.5 -8t30.5 -21.5t20.5 -31t7.5 -37.5q0 -42 -27 -69t-69 -27t-70 27t-28 69zM625 1766q0 20 7.5 37.5t20.5 31t30.5 21.5t37.5 8t37.5 -8t31 -21.5t21.5 -31t8 -37.5q0 -42 -28 -69t-70 -27t-69 26.5t-27 69.5z" />
    <glyph glyph-name="multiply" unicode="&#xd7;" horiz-adv-x="1706" 
d="M854 668l487 487l58 -57l-488 -488l488 -487l-58 -57l-487 487l-487 -487l-58 57l488 487l-488 488l58 57z" />
    <glyph glyph-name="Oslash" unicode="&#xd8;" horiz-adv-x="1792" 
d="M489 233q97 -76 196 -112.5t210 -36.5q129 0 246.5 49.5t208.5 140.5q93 93 140.5 209t47.5 248q0 118 -37.5 220.5t-116.5 201.5zM1319 1221q-183 159 -424 159q-131 0 -246.5 -48.5t-206.5 -139.5q-91 -94 -138.5 -210.5t-47.5 -250.5q0 -123 40 -228t126 -206z
M219 -45l-65 70l176 180q-106 103 -161.5 237t-55.5 289q0 157 58.5 295.5t170.5 247.5t253 167t300 58q307 0 514 -186l184 192l70 -67l-186 -191q97 -106 149.5 -239t52.5 -277q0 -157 -58.5 -295.5t-170.5 -247.5t-254.5 -165t-310.5 -56q-141 0 -259 42t-229 130z" />
    <glyph glyph-name="Ugrave" unicode="&#xd9;" horiz-adv-x="1417" 
d="M176 1464h131v-956q0 -218 98.5 -323t303.5 -105q202 0 300.5 105t98.5 323v956h133v-913q0 -297 -132 -443.5t-400 -146.5q-269 0 -401 146.5t-132 443.5v913zM842 1608h-94l-283 350h164z" />
    <glyph glyph-name="Uacute" unicode="&#xda;" horiz-adv-x="1417" 
d="M176 1464h131v-956q0 -218 98.5 -323t303.5 -105q202 0 300.5 105t98.5 323v956h133v-913q0 -297 -132 -443.5t-400 -146.5q-269 0 -401 146.5t-132 443.5v913zM576 1608l213 350h164l-283 -350h-94z" />
    <glyph glyph-name="Ucircumflex" unicode="&#xdb;" horiz-adv-x="1417" 
d="M176 1464h131v-956q0 -218 98.5 -323t303.5 -105q202 0 300.5 105t98.5 323v956h133v-913q0 -297 -132 -443.5t-400 -146.5q-269 0 -401 146.5t-132 443.5v913zM422 1608l213 350h146l213 -350h-92l-193 250l-195 -250h-92z" />
    <glyph glyph-name="Udieresis" unicode="&#xdc;" horiz-adv-x="1417" 
d="M176 1464h131v-956q0 -218 98.5 -323t303.5 -105q202 0 300.5 105t98.5 323v956h133v-913q0 -297 -132 -443.5t-400 -146.5q-269 0 -401 146.5t-132 443.5v913zM787 1766q0 20 8 37.5t21.5 31t31 21.5t37.5 8t37.5 -8t30.5 -21.5t20.5 -31t7.5 -37.5q0 -42 -27 -69
t-69 -27t-70 27t-28 69zM437 1766q0 20 7.5 37.5t20.5 31t30.5 21.5t37.5 8t37.5 -8t31 -21.5t21.5 -31t8 -37.5q0 -42 -28 -69t-70 -27t-69 26.5t-27 69.5z" />
    <glyph glyph-name="Yacute" unicode="&#xdd;" horiz-adv-x="1118" 
d="M496 0v674l-486 790h160l393 -671l395 671h152l-481 -790v-674h-133zM426 1608l213 350h164l-283 -350h-94z" />
    <glyph glyph-name="Thorn" unicode="&#xde;" 
d="M315 473h91q243 0 325 61q84 61 84 216q0 66 -19 121.5t-57 97.5q-39 43 -104 60q-65 18 -229 18h-91v-574zM182 0v1464h133v-299h111q173 0 252 -17q74 -16 133 -58q69 -51 107 -136.5t38 -191.5q0 -210 -117.5 -308t-369.5 -98h-154v-356h-133z" />
    <glyph glyph-name="germandbls" unicode="&#xdf;" horiz-adv-x="1059" 
d="M154 0v782h-121v105h121v297q0 187 92 287t264 100q166 0 262 -105q96 -104 96 -284q0 -234 -217 -318q152 -17 231 -127t79 -305q0 -217 -116 -348q-116 -129 -310 -129q-57 0 -123 25v131q61 -31 131 -31q139 0 213.5 92t74.5 262q0 180 -82.5 273.5t-242.5 93.5
q-12 0 -27 -1l-45 -3v124q8 0 18.5 -0.5t30.5 -0.5q133 0 195.5 66t62.5 204q0 132 -61.5 200t-179.5 68q-69 0 -120.5 -31.5t-76.5 -89.5q-13 -31 -21 -79q-6 -47 -6 -148v-84v-1026h-122z" />
    <glyph glyph-name="agrave" unicode="&#xe0;" horiz-adv-x="1108" 
d="M221 434q0 -173 77 -265.5t222 -92.5q140 0 220 101q81 102 81 280q0 162 -80 256q-79 94 -219 94q-139 0 -220 -100q-81 -99 -81 -273zM819 0v162q-45 -99 -123.5 -150t-187.5 -51q-191 0 -308 131q-116 131 -116 346q0 214 115 347q115 135 297 135q114 0 196 -49
t127 -146v162h123v-887h-123zM688 1030h-94l-283 350h164z" />
    <glyph glyph-name="aacute" unicode="&#xe1;" horiz-adv-x="1108" 
d="M221 434q0 -173 77 -265.5t222 -92.5q140 0 220 101q81 102 81 280q0 162 -80 256q-79 94 -219 94q-139 0 -220 -100q-81 -99 -81 -273zM819 0v162q-45 -99 -123.5 -150t-187.5 -51q-191 0 -308 131q-116 131 -116 346q0 214 115 347q115 135 297 135q114 0 196 -49
t127 -146v162h123v-887h-123zM422 1030l213 350h164l-283 -350h-94z" />
    <glyph glyph-name="acircumflex" unicode="&#xe2;" horiz-adv-x="1108" 
d="M221 434q0 -173 77 -265.5t222 -92.5q140 0 220 101q81 102 81 280q0 162 -80 256q-79 94 -219 94q-139 0 -220 -100q-81 -99 -81 -273zM819 0v162q-45 -99 -123.5 -150t-187.5 -51q-191 0 -308 131q-116 131 -116 346q0 214 115 347q115 135 297 135q114 0 196 -49
t127 -146v162h123v-887h-123zM268 1030l213 350h146l213 -350h-92l-193 250l-195 -250h-92z" />
    <glyph glyph-name="atilde" unicode="&#xe3;" horiz-adv-x="1108" 
d="M221 434q0 -173 77 -265.5t222 -92.5q140 0 220 101q81 102 81 280q0 162 -80 256q-79 94 -219 94q-139 0 -220 -100q-81 -99 -81 -273zM819 0v162q-45 -99 -123.5 -150t-187.5 -51q-191 0 -308 131q-116 131 -116 346q0 214 115 347q115 135 297 135q114 0 196 -49
t127 -146v162h123v-887h-123zM846 1294q-25 -91 -75.5 -137.5t-123.5 -46.5q-32 0 -65 10l-80 27q-26 8 -58 8q-61 0 -92 -61h-88q22 88 72.5 133t126.5 45q33 0 59 -8l78 -27q33 -10 61 -10q73 0 97 67h88z" />
    <glyph glyph-name="adieresis" unicode="&#xe4;" horiz-adv-x="1108" 
d="M221 434q0 -173 77 -265.5t222 -92.5q140 0 220 101q81 102 81 280q0 162 -80 256q-79 94 -219 94q-139 0 -220 -100q-81 -99 -81 -273zM819 0v162q-45 -99 -123.5 -150t-187.5 -51q-191 0 -308 131q-116 131 -116 346q0 214 115 347q115 135 297 135q114 0 196 -49
t127 -146v162h123v-887h-123zM633 1188q0 20 8 37.5t21.5 31t31 21.5t37.5 8t37.5 -8t30.5 -21.5t20.5 -31t7.5 -37.5q0 -42 -27 -69t-69 -27t-70 27t-28 69zM283 1188q0 20 7.5 37.5t20.5 31t30.5 21.5t37.5 8t37.5 -8t31 -21.5t21.5 -31t8 -37.5q0 -42 -28 -69t-70 -27
t-69 26.5t-27 69.5z" />
    <glyph glyph-name="aring" unicode="&#xe5;" horiz-adv-x="1108" 
d="M221 434q0 -173 77 -265.5t222 -92.5q140 0 220 101q81 102 81 280q0 162 -80 256q-79 94 -219 94q-139 0 -220 -100q-81 -99 -81 -273zM819 0v162q-45 -99 -123.5 -150t-187.5 -51q-191 0 -308 131q-116 131 -116 346q0 214 115 347q115 135 297 135q114 0 196 -49
t127 -146v162h123v-887h-123zM393 1221q0 -56 39 -95t94 -39q56 0 94 39q39 39 39 95t-39 95q-37 40 -94 40q-55 0 -94 -40q-39 -39 -39 -95zM291 1221q0 100 67 167q68 68 168 68t168 -68t68 -167q0 -98 -68 -168q-68 -68 -168 -68q-97 0 -167 68q-68 70 -68 168z" />
    <glyph glyph-name="ae" unicode="&#xe6;" horiz-adv-x="1624" 
d="M1534 438h-705q6 -170 84 -268q79 -96 211 -96q205 0 299 211l117 -62q-69 -135 -170 -199.5t-244 -64.5q-124 0 -212.5 53.5t-149.5 167.5q-37 -106 -130 -163.5t-226 -57.5q-153 0 -244 79q-92 80 -92 208q0 131 99 214q101 83 263 83q175 0 276 -88q2 12 2.5 25.5
t0.5 39.5q0 150 -67 221.5t-208 71.5q-76 0 -150.5 -19t-150.5 -59l2 131q75 27 151.5 40.5t158.5 13.5q67 0 124.5 -13t101.5 -37t74 -58.5t42 -78.5q48 90 134 138.5t195 48.5q188 0 301 -125t113 -336v-21zM838 543h551q-8 123 -80.5 190.5t-196.5 67.5q-110 0 -187 -71
q-75 -70 -87 -187zM702 270q0 75 -68 122q-67 46 -179 46q-118 0 -183 -50t-65 -138q0 -85 60.5 -130.5t172.5 -45.5q116 0 189 55t73 141z" />
    <glyph glyph-name="ccedilla" unicode="&#xe7;" horiz-adv-x="934" 
d="M854 725q-125 86 -276 86q-166 0 -263 -106q-98 -106 -98 -281q0 -156 101 -257q103 -101 260 -101q72 0 145 24.5t145 75.5v-135q-131 -74 -313 -74q-203 0 -333 133t-130 342q0 217 135 352q136 136 353 136q81 0 151 -15.5t125 -44.5zM334 -379v70q49 -10 85.5 -16.5
t59.5 -9.5q23 -4 43 -5.5t37 -1.5q125 0 125 88q0 90 -141 90q-6 0 -20 -1t-21 -1v166h61v-100h15q103 0 158 -39.5t55 -112.5q0 -164 -215 -164q-51 0 -109 9t-133 28z" />
    <glyph glyph-name="egrave" unicode="&#xe8;" horiz-adv-x="1018" 
d="M780 545q-9 123 -80.5 189.5t-195.5 66.5q-112 0 -188 -70q-75 -71 -87 -186h551zM926 440h-705q4 -172 86 -270q81 -98 217 -98q198 0 295 213l113 -62q-68 -135 -166.5 -198.5t-241.5 -63.5q-195 0 -316 130q-120 130 -120 343q0 218 119 352q120 134 313 134
q184 0 295 -124q111 -123 111 -329v-27zM644 1030h-94l-283 350h164z" />
    <glyph glyph-name="eacute" unicode="&#xe9;" horiz-adv-x="1018" 
d="M780 545q-9 123 -80.5 189.5t-195.5 66.5q-112 0 -188 -70q-75 -71 -87 -186h551zM926 440h-705q4 -172 86 -270q81 -98 217 -98q198 0 295 213l113 -62q-68 -135 -166.5 -198.5t-241.5 -63.5q-195 0 -316 130q-120 130 -120 343q0 218 119 352q120 134 313 134
q184 0 295 -124q111 -123 111 -329v-27zM378 1030l213 350h164l-283 -350h-94z" />
    <glyph glyph-name="ecircumflex" unicode="&#xea;" horiz-adv-x="1018" 
d="M780 545q-9 123 -80.5 189.5t-195.5 66.5q-112 0 -188 -70q-75 -71 -87 -186h551zM926 440h-705q4 -172 86 -270q81 -98 217 -98q198 0 295 213l113 -62q-68 -135 -166.5 -198.5t-241.5 -63.5q-195 0 -316 130q-120 130 -120 343q0 218 119 352q120 134 313 134
q184 0 295 -124q111 -123 111 -329v-27zM224 1030l213 350h146l213 -350h-92l-193 250l-195 -250h-92z" />
    <glyph glyph-name="edieresis" unicode="&#xeb;" horiz-adv-x="1018" 
d="M780 545q-9 123 -80.5 189.5t-195.5 66.5q-112 0 -188 -70q-75 -71 -87 -186h551zM926 440h-705q4 -172 86 -270q81 -98 217 -98q198 0 295 213l113 -62q-68 -135 -166.5 -198.5t-241.5 -63.5q-195 0 -316 130q-120 130 -120 343q0 218 119 352q120 134 313 134
q184 0 295 -124q111 -123 111 -329v-27zM589 1188q0 20 8 37.5t21.5 31t31 21.5t37.5 8t37.5 -8t30.5 -21.5t20.5 -31t7.5 -37.5q0 -42 -27 -69t-69 -27t-70 27t-28 69zM239 1188q0 20 7.5 37.5t20.5 31t30.5 21.5t37.5 8t37.5 -8t31 -21.5t21.5 -31t8 -37.5q0 -42 -28 -69
t-70 -27t-69 26.5t-27 69.5z" />
    <glyph glyph-name="igrave" unicode="&#xec;" horiz-adv-x="471" 
d="M172 0v887h127v-887h-127zM370 1030h-94l-283 350h164z" />
    <glyph glyph-name="iacute" unicode="&#xed;" horiz-adv-x="471" 
d="M172 0v887h127v-887h-127zM104 1030l213 350h164l-283 -350h-94z" />
    <glyph glyph-name="icircumflex" unicode="&#xee;" horiz-adv-x="471" 
d="M172 0v887h127v-887h-127zM-50 1030l213 350h146l213 -350h-92l-193 250l-195 -250h-92z" />
    <glyph glyph-name="idieresis" unicode="&#xef;" horiz-adv-x="471" 
d="M172 0v887h127v-887h-127zM315 1188q0 20 8 37.5t21.5 31t31 21.5t37.5 8t37.5 -8t30.5 -21.5t20.5 -31t7.5 -37.5q0 -42 -27 -69t-69 -27t-70 27t-28 69zM-35 1188q0 20 7.5 37.5t20.5 31t30.5 21.5t37.5 8t37.5 -8t31 -21.5t21.5 -31t8 -37.5q0 -42 -28 -69t-70 -27
t-69 26.5t-27 69.5z" />
    <glyph glyph-name="eth" unicode="&#xf0;" horiz-adv-x="1139" 
d="M567 76q145 0 246 102q102 103 102 250t-101 250q-101 102 -247 102q-147 0 -247 -102q-101 -103 -101 -250q0 -146 101 -250q100 -102 247 -102zM893 741q-35 132 -117.5 257.5t-206.5 234.5l-313 -146l-47 82l276 131q-45 37 -103.5 75t-139.5 83l59 90
q103 -60 176 -108.5t121 -87.5l342 159l51 -84l-307 -147q369 -369 369 -784q0 -245 -133 -390q-132 -145 -353 -145q-94 0 -184 36.5t-160 102.5q-69 66 -104 148t-35 176t36 178t103 148q69 66 154 101.5t172 35.5q91 0 175.5 -35.5t168.5 -110.5z" />
    <glyph glyph-name="ntilde" unicode="&#xf1;" horiz-adv-x="1067" 
d="M164 0v887h117v-137q108 170 313 170q75 0 134.5 -21.5t100.5 -62.5t62.5 -100t21.5 -134v-602h-125v547q0 134 -55 198t-172 64q-142 0 -208 -83t-66 -263v-463h-123zM826 1294q-25 -91 -75.5 -137.5t-123.5 -46.5q-32 0 -65 10l-80 27q-26 8 -58 8q-61 0 -92 -61h-88
q22 88 72.5 133t126.5 45q33 0 59 -8l78 -27q33 -10 61 -10q73 0 97 67h88z" />
    <glyph glyph-name="ograve" unicode="&#xf2;" horiz-adv-x="1143" 
d="M571 76q146 0 247 105q102 106 102 259q0 154 -101 260q-101 105 -248 105t-247 -105q-101 -106 -101 -260q0 -152 101 -259q100 -105 247 -105zM567 -39q-96 0 -182 37.5t-158 107.5q-67 66 -102 151.5t-35 184.5q0 97 36 184t103 154q69 69 155 104.5t183 35.5
q99 0 187 -35.5t157 -104.5t105.5 -155t36.5 -183t-35.5 -183t-104.5 -153q-70 -70 -159.5 -107.5t-186.5 -37.5zM704 1030h-94l-283 350h164z" />
    <glyph glyph-name="oacute" unicode="&#xf3;" horiz-adv-x="1143" 
d="M571 76q146 0 247 105q102 106 102 259q0 154 -101 260q-101 105 -248 105t-247 -105q-101 -106 -101 -260q0 -152 101 -259q100 -105 247 -105zM567 -39q-96 0 -182 37.5t-158 107.5q-67 66 -102 151.5t-35 184.5q0 97 36 184t103 154q69 69 155 104.5t183 35.5
q99 0 187 -35.5t157 -104.5t105.5 -155t36.5 -183t-35.5 -183t-104.5 -153q-70 -70 -159.5 -107.5t-186.5 -37.5zM438 1030l213 350h164l-283 -350h-94z" />
    <glyph glyph-name="ocircumflex" unicode="&#xf4;" horiz-adv-x="1143" 
d="M571 76q146 0 247 105q102 106 102 259q0 154 -101 260q-101 105 -248 105t-247 -105q-101 -106 -101 -260q0 -152 101 -259q100 -105 247 -105zM567 -39q-96 0 -182 37.5t-158 107.5q-67 66 -102 151.5t-35 184.5q0 97 36 184t103 154q69 69 155 104.5t183 35.5
q99 0 187 -35.5t157 -104.5t105.5 -155t36.5 -183t-35.5 -183t-104.5 -153q-70 -70 -159.5 -107.5t-186.5 -37.5zM284 1030l213 350h146l213 -350h-92l-193 250l-195 -250h-92z" />
    <glyph glyph-name="otilde" unicode="&#xf5;" horiz-adv-x="1143" 
d="M571 76q146 0 247 105q102 106 102 259q0 154 -101 260q-101 105 -248 105t-247 -105q-101 -106 -101 -260q0 -152 101 -259q100 -105 247 -105zM567 -39q-96 0 -182 37.5t-158 107.5q-67 66 -102 151.5t-35 184.5q0 97 36 184t103 154q69 69 155 104.5t183 35.5
q99 0 187 -35.5t157 -104.5t105.5 -155t36.5 -183t-35.5 -183t-104.5 -153q-70 -70 -159.5 -107.5t-186.5 -37.5zM862 1294q-25 -91 -75.5 -137.5t-123.5 -46.5q-32 0 -65 10l-80 27q-26 8 -58 8q-61 0 -92 -61h-88q22 88 72.5 133t126.5 45q33 0 59 -8l78 -27
q33 -10 61 -10q73 0 97 67h88z" />
    <glyph glyph-name="odieresis" unicode="&#xf6;" horiz-adv-x="1143" 
d="M571 76q146 0 247 105q102 106 102 259q0 154 -101 260q-101 105 -248 105t-247 -105q-101 -106 -101 -260q0 -152 101 -259q100 -105 247 -105zM567 -39q-96 0 -182 37.5t-158 107.5q-67 66 -102 151.5t-35 184.5q0 97 36 184t103 154q69 69 155 104.5t183 35.5
q99 0 187 -35.5t157 -104.5t105.5 -155t36.5 -183t-35.5 -183t-104.5 -153q-70 -70 -159.5 -107.5t-186.5 -37.5zM649 1188q0 20 8 37.5t21.5 31t31 21.5t37.5 8t37.5 -8t30.5 -21.5t20.5 -31t7.5 -37.5q0 -42 -27 -69t-69 -27t-70 27t-28 69zM299 1188q0 20 7.5 37.5
t20.5 31t30.5 21.5t37.5 8t37.5 -8t31 -21.5t21.5 -31t8 -37.5q0 -42 -28 -69t-70 -27t-69 26.5t-27 69.5z" />
    <glyph glyph-name="divide" unicode="&#xf7;" horiz-adv-x="1706" 
d="M854 365q21 0 38.5 -8t31 -21.5t21 -32t7.5 -39.5q0 -20 -7.5 -37.5t-21 -31t-31 -21.5t-38.5 -8q-42 0 -70 28t-28 70q0 40 29 71q28 30 69 30zM1452 651v-82h-1198v82h1198zM854 1055q21 0 38.5 -7.5t31 -21t21 -31.5t7.5 -39q0 -39 -29 -70q-29 -30 -69 -30
q-42 0 -70 29t-28 71t28 70.5t70 28.5z" />
    <glyph glyph-name="oslash" unicode="&#xf8;" horiz-adv-x="1143" 
d="M147 -41l-55 59l111 113q-60 73 -87.5 146.5t-27.5 154.5q0 209 139 348q140 140 348 140q85 0 157.5 -27t144.5 -84l110 113l62 -58l-113 -110q117 -144 117 -310q0 -207 -142 -345q-141 -138 -352 -138q-82 0 -154 27.5t-141 85.5zM346 160q51 -42 104 -62t113 -20
q154 0 254 103q101 104 101 263q0 60 -17 113t-51 107zM793 723q-88 82 -211 82q-158 0 -259 -104q-100 -103 -100 -267q0 -58 17 -110t53 -103z" />
    <glyph glyph-name="ugrave" unicode="&#xf9;" horiz-adv-x="1079" 
d="M287 887v-443q0 -203 57 -285q59 -83 195 -83t195 84q59 85 59 284v443h122v-506q0 -208 -94.5 -314t-279.5 -106q-186 0 -281.5 106t-95.5 314v506h123zM674 1030h-94l-283 350h164z" />
    <glyph glyph-name="uacute" unicode="&#xfa;" horiz-adv-x="1079" 
d="M287 887v-443q0 -203 57 -285q59 -83 195 -83t195 84q59 85 59 284v443h122v-506q0 -208 -94.5 -314t-279.5 -106q-186 0 -281.5 106t-95.5 314v506h123zM408 1030l213 350h164l-283 -350h-94z" />
    <glyph glyph-name="ucircumflex" unicode="&#xfb;" horiz-adv-x="1079" 
d="M287 887v-443q0 -203 57 -285q59 -83 195 -83t195 84q59 85 59 284v443h122v-506q0 -208 -94.5 -314t-279.5 -106q-186 0 -281.5 106t-95.5 314v506h123zM254 1030l213 350h146l213 -350h-92l-193 250l-195 -250h-92z" />
    <glyph glyph-name="udieresis" unicode="&#xfc;" horiz-adv-x="1079" 
d="M287 887v-443q0 -203 57 -285q59 -83 195 -83t195 84q59 85 59 284v443h122v-506q0 -208 -94.5 -314t-279.5 -106q-186 0 -281.5 106t-95.5 314v506h123zM619 1188q0 20 8 37.5t21.5 31t31 21.5t37.5 8t37.5 -8t30.5 -21.5t20.5 -31t7.5 -37.5q0 -42 -27 -69t-69 -27
t-70 27t-28 69zM269 1188q0 20 7.5 37.5t20.5 31t30.5 21.5t37.5 8t37.5 -8t31 -21.5t21.5 -31t8 -37.5q0 -42 -28 -69t-70 -27t-69 26.5t-27 69.5z" />
    <glyph glyph-name="yacute" unicode="&#xfd;" horiz-adv-x="825" 
d="M43 887h131l254 -694l234 694h131l-459 -1333h-127l155 452zM282 1030l213 350h164l-283 -350h-94z" />
    <glyph glyph-name="thorn" unicode="&#xfe;" horiz-adv-x="1108" 
d="M883 438q0 173 -79 270q-78 99 -216 99q-142 0 -223 -96q-80 -95 -80 -262q0 -169 86 -272q87 -101 229 -101q67 0 119.5 24.5t89 71t55.5 113.5t19 153zM283 164v-610h-119v1996h119v-829q42 94 125 146.5t192 52.5q187 0 301 -132q115 -130 115 -348q0 -219 -112 -349
q-111 -130 -298 -130q-108 0 -189.5 51.5t-133.5 151.5z" />
    <glyph glyph-name="ydieresis" unicode="&#xff;" horiz-adv-x="825" 
d="M43 887h131l254 -694l234 694h131l-459 -1333h-127l155 452zM493 1188q0 20 8 37.5t21.5 31t31 21.5t37.5 8t37.5 -8t30.5 -21.5t20.5 -31t7.5 -37.5q0 -42 -27 -69t-69 -27t-70 27t-28 69zM143 1188q0 20 7.5 37.5t20.5 31t30.5 21.5t37.5 8t37.5 -8t31 -21.5t21.5 -31
t8 -37.5q0 -42 -28 -69t-70 -27t-69 26.5t-27 69.5z" />
    <glyph glyph-name="Cacute" unicode="&#x106;" horiz-adv-x="1464" 
d="M1358 1196q-109 94 -222.5 139t-240.5 45q-284 0 -462 -180q-177 -180 -177 -469q0 -146 43 -261t133 -206q88 -88 201 -134t244 -46q127 0 246 42.5t227 127.5v-156q-109 -66 -229 -101.5t-238 -35.5q-159 0 -304 57q-146 57 -249 160q-108 106 -162.5 245.5
t-54.5 307.5q0 165 56.5 306.5t162.5 244.5q105 102 248 158q145 57 303 57q281 0 477 -154zM741 1608l213 350h164l-283 -350h-94z" />
    <glyph glyph-name="cacute" unicode="&#x107;" horiz-adv-x="934" 
d="M854 725q-125 86 -276 86q-166 0 -263 -106q-98 -106 -98 -281q0 -156 101 -257q103 -101 260 -101q72 0 145 24.5t145 75.5v-135q-131 -74 -313 -74q-203 0 -333 133t-130 342q0 217 135 352q136 136 353 136q81 0 151 -15.5t125 -44.5zM428 1030l213 350h164l-283 -350
h-94z" />
    <glyph glyph-name="Ccaron" unicode="&#x10c;" horiz-adv-x="1464" 
d="M1358 1196q-109 94 -222.5 139t-240.5 45q-284 0 -462 -180q-177 -180 -177 -469q0 -146 43 -261t133 -206q88 -88 201 -134t244 -46q127 0 246 42.5t227 127.5v-156q-109 -66 -229 -101.5t-238 -35.5q-159 0 -304 57q-146 57 -249 160q-108 106 -162.5 245.5
t-54.5 307.5q0 165 56.5 306.5t162.5 244.5q105 102 248 158q145 57 303 57q281 0 477 -154zM1159 1958l-213 -350h-146l-213 350h92l195 -250l193 250h92z" />
    <glyph glyph-name="ccaron" unicode="&#x10d;" horiz-adv-x="934" 
d="M854 725q-125 86 -276 86q-166 0 -263 -106q-98 -106 -98 -281q0 -156 101 -257q103 -101 260 -101q72 0 145 24.5t145 75.5v-135q-131 -74 -313 -74q-203 0 -333 133t-130 342q0 217 135 352q136 136 353 136q81 0 151 -15.5t125 -44.5zM846 1380l-213 -350h-146
l-213 350h92l195 -250l193 250h92z" />
    <glyph glyph-name="dcroat" unicode="&#x111;" horiz-adv-x="1116" 
d="M225 434q0 -173 77 -265.5t222 -92.5q139 0 219 101q80 103 80 280q0 162 -80 256q-79 94 -217 94t-220 -100q-81 -101 -81 -273zM821 0v162q-43 -99 -121.5 -150t-187.5 -51q-191 0 -308 131q-116 131 -116 346q0 213 115 347q115 135 297 135q114 0 195 -49t126 -146
v436h-360v101h360v288h125v-288h170v-101h-170v-1161h-125z" />
    <glyph glyph-name="Gbreve" unicode="&#x11e;" horiz-adv-x="1673" 
d="M1382 1096q-90 139 -219 209.5t-293 70.5q-272 0 -443 -184q-171 -185 -171 -477q0 -132 45 -247t133 -206q175 -178 436 -178q246 0 400 145q155 146 159 379h-505v115h651v-16q0 -349 -191 -548q-191 -198 -526 -198q-333 0 -539 212t-206 556q0 159 51.5 298.5
t150.5 244.5q210 225 537 225q224 0 382 -80t245 -237zM564 1862h79q11 -67 57.5 -98t137.5 -31t136.5 30t56.5 99h81q-12 -124 -77.5 -182t-196.5 -58t-196.5 58t-77.5 182z" />
    <glyph glyph-name="gbreve" unicode="&#x11f;" horiz-adv-x="1108" 
d="M944 887v-733q0 -88 -2.5 -154.5t-7.5 -112.5q-9 -93 -31 -137q-91 -196 -381 -196q-353 0 -395 276h154q15 -82 78.5 -124t172.5 -42q82 0 147.5 29t98.5 80q22 32 31 77q10 41 10 134v47v133q-41 -95 -126 -149q-84 -54 -193 -54q-187 0 -299 130q-111 130 -111 349
q0 217 114 348q114 132 302 132q105 0 190 -55q85 -54 123 -144v166h125zM520 807q-139 0 -218 -99q-79 -97 -79 -270q0 -171 75 -267q77 -95 210 -95q141 0 227 101t86 272q0 168 -80 263t-221 95zM281 1284h79q11 -67 57.5 -98t137.5 -31t136.5 30t56.5 99h81
q-12 -124 -77.5 -182t-196.5 -58t-196.5 58t-77.5 182z" />
    <glyph glyph-name="Idotaccent" unicode="&#x130;" horiz-adv-x="498" 
d="M182 0v1464h133v-1464h-133zM149 1766q0 41 30 73q31 31 72 31q21 0 39.5 -8t32.5 -22.5t22 -33.5t8 -40q0 -42 -31 -73q-30 -30 -71 -30t-72 30q-30 31 -30 73z" />
    <glyph glyph-name="dotlessi" unicode="&#x131;" horiz-adv-x="471" 
d="M172 0v887h127v-887h-127z" />
    <glyph glyph-name="Lslash" unicode="&#x141;" horiz-adv-x="856" 
d="M193 0v672l-195 -135l-66 79l261 185v663h133v-592l237 166l64 -86l-301 -209v-618h501v-125h-634z" />
    <glyph glyph-name="lslash" unicode="&#x142;" horiz-adv-x="500" 
d="M313 831l152 107l55 -82l-207 -147v-709h-127v635l-149 -109l-57 82l206 148v794h127v-719z" />
    <glyph glyph-name="OE" unicode="&#x152;" horiz-adv-x="2320" 
d="M2181 1464v-125h-575v-458h575v-125h-575v-631h575v-125h-698v311q-98 -167 -257 -256q-161 -90 -360 -90q-103 0 -199 26t-180 77q-181 109 -278 281q-96 172 -96 384q0 158 55.5 295.5t163.5 245.5q109 109 248.5 167t298.5 58q199 0 350 -84.5t254 -253.5v303h698z
M242 731q0 -131 46.5 -246.5t137.5 -212.5q85 -91 197.5 -138.5t238.5 -47.5q130 0 239.5 46.5t196.5 137.5q88 94 134.5 212t46.5 249q0 281 -172 459q-180 188 -445 188q-125 0 -236.5 -47.5t-199.5 -138.5q-91 -97 -137.5 -212.5t-46.5 -248.5z" />
    <glyph glyph-name="oe" unicode="&#x153;" horiz-adv-x="1841" 
d="M573 76q146 0 247 105q102 106 102 259q0 154 -101 260q-101 105 -248 105t-247 -105q-101 -106 -101 -260q0 -152 101 -259q100 -105 247 -105zM1053 545h551q-8 124 -80.5 192t-196.5 68q-112 0 -188 -73q-77 -74 -86 -187zM1749 442h-705q0 -166 81 -266
q82 -100 212 -100q207 0 301 213l117 -64q-137 -264 -403 -264q-135 0 -239 65q-102 64 -138 173q-29 -57 -70.5 -101t-93.5 -74.5t-113 -46.5t-129 -16q-97 0 -183 35t-155 104t-104 155.5t-35 186.5q0 97 36 184t103 154t154 104.5t178 37.5q145 0 248.5 -58.5
t163.5 -175.5q40 109 138 171q97 63 226 63q187 0 298 -125q112 -124 112 -334v-21z" />
    <glyph glyph-name="Scedilla" unicode="&#x15e;" horiz-adv-x="1020" 
d="M70 246l114 61q32 -109 110 -168t189 -59q69 0 124 21t93 61t58 97.5t20 129.5q0 105 -53 176q-53 70 -225 162q-220 117 -294 206q-73 88 -73 214q0 156 105 254q107 98 274 98q222 0 324 -186l-103 -62q-32 63 -90 96t-139 33q-54 0 -97.5 -16.5t-74.5 -47t-47.5 -74
t-16.5 -97.5q0 -153 254 -287q23 -12 40.5 -21t29.5 -16q187 -103 250 -195t63 -237q0 -198 -115 -313t-313 -115q-145 0 -247 71t-160 214zM300 -379v70q49 -10 85.5 -16.5t59.5 -9.5q23 -4 43 -5.5t37 -1.5q125 0 125 88q0 90 -141 90q-6 0 -20 -1t-21 -1v166h61v-100h15
q103 0 158 -39.5t55 -112.5q0 -164 -215 -164q-51 0 -109 9t-133 28z" />
    <glyph glyph-name="scedilla" unicode="&#x15f;" horiz-adv-x="782" 
d="M63 158l117 67q59 -149 219 -149q78 0 124 39.5t46 105.5q0 103 -181 173q-20 7 -30 12q-70 28 -119 56t-77 57q-56 59 -56 145q0 113 80 185q79 73 207 73q109 0 184.5 -46.5t110.5 -134.5l-113 -63q-21 63 -69.5 96t-120.5 33q-63 0 -106 -38q-41 -38 -41 -93t41 -91
q39 -35 170 -79q147 -51 196 -111q51 -60 51 -166q0 -122 -87 -195q-86 -73 -234 -73q-114 0 -195 51.5t-117 145.5zM181 -379v70q49 -10 85.5 -16.5t59.5 -9.5q23 -4 43 -5.5t37 -1.5q125 0 125 88q0 90 -141 90q-6 0 -20 -1t-21 -1v166h61v-100h15q103 0 158 -39.5
t55 -112.5q0 -164 -215 -164q-51 0 -109 9t-133 28z" />
    <glyph glyph-name="Scaron" unicode="&#x160;" horiz-adv-x="1020" 
d="M70 246l114 61q32 -109 110 -168t189 -59q69 0 124 21t93 61t58 97.5t20 129.5q0 105 -53 176q-53 70 -225 162q-220 117 -294 206q-73 88 -73 214q0 156 105 254q107 98 274 98q222 0 324 -186l-103 -62q-32 63 -90 96t-139 33q-54 0 -97.5 -16.5t-74.5 -47t-47.5 -74
t-16.5 -97.5q0 -153 254 -287q23 -12 40.5 -21t29.5 -16q187 -103 250 -195t63 -237q0 -198 -115 -313t-313 -115q-145 0 -247 71t-160 214zM796 1958l-213 -350h-146l-213 350h92l195 -250l193 250h92z" />
    <glyph glyph-name="scaron" unicode="&#x161;" horiz-adv-x="782" 
d="M63 158l117 67q59 -149 219 -149q78 0 124 39.5t46 105.5q0 103 -181 173q-20 7 -30 12q-70 28 -119 56t-77 57q-56 59 -56 145q0 113 80 185q79 73 207 73q109 0 184.5 -46.5t110.5 -134.5l-113 -63q-21 63 -69.5 96t-120.5 33q-63 0 -106 -38q-41 -38 -41 -93t41 -91
q39 -35 170 -79q147 -51 196 -111q51 -60 51 -166q0 -122 -87 -195q-86 -73 -234 -73q-114 0 -195 51.5t-117 145.5zM677 1380l-213 -350h-146l-213 350h92l195 -250l193 250h92z" />
    <glyph glyph-name="Ydieresis" unicode="&#x178;" horiz-adv-x="1118" 
d="M496 0v674l-486 790h160l393 -671l395 671h152l-481 -790v-674h-133zM637 1766q0 20 8 37.5t21.5 31t31 21.5t37.5 8t37.5 -8t30.5 -21.5t20.5 -31t7.5 -37.5q0 -42 -27 -69t-69 -27t-70 27t-28 69zM287 1766q0 20 7.5 37.5t20.5 31t30.5 21.5t37.5 8t37.5 -8t31 -21.5
t21.5 -31t8 -37.5q0 -42 -28 -69t-70 -27t-69 26.5t-27 69.5z" />
    <glyph glyph-name="Zcaron" unicode="&#x17d;" horiz-adv-x="1147" 
d="M25 0l870 1343h-743v121h970l-866 -1341h778v-123h-1009zM858 1958l-213 -350h-146l-213 350h92l195 -250l193 250h92z" />
    <glyph glyph-name="zcaron" unicode="&#x17e;" horiz-adv-x="780" 
d="M23 0l495 776h-461v111h674l-491 -776h505v-111h-722zM677 1380l-213 -350h-146l-213 350h92l195 -250l193 250h92z" />
    <glyph glyph-name="uni018f" unicode="&#x18f;" horiz-adv-x="1689" 
d="M1412 978q-44 117 -132 212q-87 93 -195.5 140.5t-233.5 47.5q-124 0 -232 -47.5t-196 -140.5q-15 -15 -30 -35l-89 94q7 7 13 13.5t12 13.5q105 109 237 165t285 56q154 0 286.5 -56t237.5 -165q106 -112 161 -250.5t55 -296.5q0 -156 -55 -295t-161 -248
q-108 -111 -241 -168t-283 -57t-283 57t-239 168q-106 112 -161 249.5t-55 293.5q0 42 3 84h1337q-5 43 -15 84t-26 81zM293 472q44 -110 130 -204q176 -188 428 -188q124 0 232.5 47.5t196.5 140.5q86 93 132 211q40 105 45 219h-1210q5 -116 46 -226z" />
    <glyph glyph-name="florin" unicode="&#x192;" horiz-adv-x="1180" 
d="M658 825l-88 -800q-32 -280 -95 -377q-63 -99 -197 -99q-39 1 -92 15l31 118q11 -6 25 -9t36 -3q70 0 103 68q34 66 64 348l82 739h-163l10 95h164l20 182q22 206 89 292q67 85 202 85q70 0 127 -29l-21 -107q-33 12 -59 17.5t-47 5.5q-74 0 -108 -49q-35 -50 -54 -223
l-18 -174h194l-6 -95h-199z" />
    <glyph glyph-name="uni0259" unicode="&#x259;" horiz-adv-x="1087" 
d="M185 782q67 66 153 102q87 36 183 36q99 0 187 -35.5t157 -104.5t102.5 -155t33.5 -183t-34 -183t-98 -153q-67 -70 -151.5 -107.5t-177.5 -37.5q-91 0 -173 37.5t-149 107.5q-63 66 -96.5 151.5t-33.5 184.5q0 27 3 53h780q-14 119 -98 205q-101 105 -248 105t-247 -105
l-6 -6zM310 181q96 -105 234 -105q139 0 234 105q81 88 94 209h-655q13 -120 93 -209z" />
    <glyph glyph-name="circumflex" unicode="&#x2c6;" 
d="M225 1030l213 350h146l213 -350h-92l-193 250l-195 -250h-92z" />
    <glyph glyph-name="caron" unicode="&#x2c7;" 
d="M797 1380l-213 -350h-146l-213 350h92l195 -250l193 250h92z" />
    <glyph glyph-name="breve" unicode="&#x2d8;" 
d="M238 1284h79q11 -67 57.5 -98t137.5 -31t136.5 30t56.5 99h81q-12 -124 -77.5 -182t-196.5 -58t-196.5 58t-77.5 182z" />
    <glyph glyph-name="dotaccent" unicode="&#x2d9;" 
d="M410 1188q0 41 30 73q31 31 72 31q21 0 39.5 -8t32.5 -22.5t22 -33.5t8 -40q0 -42 -31 -73q-30 -30 -71 -30t-72 30q-30 31 -30 73z" />
    <glyph glyph-name="ring" unicode="&#x2da;" 
d="M371 1260q0 -62 40 -103q41 -41 101 -41t101 42q42 42 42 102q0 59 -42 100q-41 41 -101 41t-101 -41q-40 -40 -40 -100zM264 1260q0 104 72 175q72 72 176 72t176 -72q72 -71 72 -175q0 -105 -72 -177q-73 -71 -176 -71t-176 71q-72 72 -72 177z" />
    <glyph glyph-name="ogonek" unicode="&#x2db;" 
d="M573 0q-73 -66 -108 -123.5t-35 -112.5q0 -46 23 -66t77 -20h84v-112h-79q-115 0 -168.5 39.5t-53.5 124.5q0 64 41 125q20 30 57 66t91 79h71z" />
    <glyph glyph-name="tilde" unicode="&#x2dc;" 
d="M803 1294q-25 -91 -75.5 -137.5t-123.5 -46.5q-32 0 -65 10l-80 27q-26 8 -58 8q-61 0 -92 -61h-88q22 88 72.5 133t126.5 45q33 0 59 -8l78 -27q33 -10 61 -10q73 0 97 67h88z" />
    <glyph glyph-name="hungarumlaut" unicode="&#x2dd;" 
d="M580 1030l168 350h155l-239 -350h-84zM322 1030l147 350h158l-221 -350h-84z" />
    <glyph glyph-name="Omega" unicode="&#x3a9;" horiz-adv-x="1585" 
d="M1452 121v-121h-573v102q438 272 438 684q0 268 -147 438q-145 169 -377 169q-231 0 -378 -169q-147 -170 -147 -438q0 -412 439 -684v-102h-572v121h354q-183 132 -271.5 295.5t-88.5 369.5q0 316 188 522q189 205 476 205t474 -205q189 -206 189 -522
q0 -206 -88.5 -369.5t-271.5 -295.5h356z" />
    <glyph glyph-name="pi" unicode="&#x3c0;" horiz-adv-x="1155" 
d="M1102 958h-182l-119 -565q-14 -63 -21.5 -111.5t-7.5 -76.5q0 -59 24.5 -83t84.5 -24q53 0 92 10l-25 -108q-29 -9 -52 -12.5t-44 -3.5q-93 0 -146 54t-53 148q0 23 3 53.5t8 68.5q12 75 45 229l88 421h-381l-203 -958h-121l201 958h-39q-55 0 -85.5 -32t-41.5 -101h-121
q26 136 85 186q59 52 206 52h829z" />
    <glyph glyph-name="endash" unicode="&#x2013;" 
d="M0 481h1024v-80h-1024v80z" />
    <glyph glyph-name="emdash" unicode="&#x2014;" horiz-adv-x="2048" 
d="M0 401v80h2048v-80h-2048z" />
    <glyph glyph-name="quoteleft" unicode="&#x2018;" horiz-adv-x="590" 
d="M467 1466l-195 -540l-149 67l262 504z" />
    <glyph glyph-name="quoteright" unicode="&#x2019;" horiz-adv-x="590" 
d="M123 958l194 539l150 -65l-262 -506z" />
    <glyph glyph-name="quotesinglbase" unicode="&#x201a;" horiz-adv-x="590" 
d="M324 254l145 -61l-264 -515l-84 39z" />
    <glyph glyph-name="quotedblleft" unicode="&#x201c;" horiz-adv-x="877" 
d="M772 1466l-194 -540l-150 67l262 504zM449 1466l-195 -540l-148 67l261 504z" />
    <glyph glyph-name="quotedblright" unicode="&#x201d;" horiz-adv-x="877" 
d="M428 958l195 539l149 -65l-262 -506zM106 958l193 539l150 -65l-263 -506z" />
    <glyph glyph-name="quotedblbase" unicode="&#x201e;" horiz-adv-x="877" 
d="M428 -287l195 541l149 -68l-262 -505zM106 -287l193 541l150 -68l-263 -505z" />
    <glyph glyph-name="dagger" unicode="&#x2020;" horiz-adv-x="1042" 
d="M461 -446v1220h-361v115h361v575h123v-575h360v-115h-360v-1220h-123z" />
    <glyph glyph-name="daggerdbl" unicode="&#x2021;" horiz-adv-x="1042" 
d="M459 -446v485h-359v113h359v720h-359v113h359v479h123v-479h362v-113h-362v-720h362v-113h-362v-485h-123z" />
    <glyph glyph-name="bullet" unicode="&#x2022;" horiz-adv-x="1208" 
d="M307 762q0 123 87 209q88 86 210 86t208 -87q87 -86 87 -208t-88 -210q-87 -87 -209 -87q-124 0 -209 87q-86 88 -86 210z" />
    <glyph glyph-name="ellipsis" unicode="&#x2026;" horiz-adv-x="2048" 
d="M240 84q0 43 29.5 72.5t72.5 29.5t72.5 -29.5t29.5 -72.5t-29.5 -72.5t-72.5 -29.5t-72.5 29.5t-29.5 72.5zM922 84q0 43 29.5 72.5t72.5 29.5t72.5 -29.5t29.5 -72.5t-29.5 -72.5t-72.5 -29.5t-72.5 29.5t-29.5 72.5zM1606 84q0 43 29.5 72.5t72.5 29.5t72.5 -29.5
t29.5 -72.5t-29.5 -72.5t-72.5 -29.5t-72.5 29.5t-29.5 72.5z" />
    <glyph glyph-name="perthousand" unicode="&#x2030;" horiz-adv-x="2204" 
d="M1673 336q0 -138 45.5 -210.5t130.5 -72.5t129.5 72.5t44.5 210.5q0 280 -174 280q-85 0 -130.5 -72t-45.5 -208zM2142 334q0 -89 -20 -158t-57.5 -117t-92 -73t-123.5 -25t-124 25t-93 73t-58 117t-20 158q0 177 78 276t217 99q69 0 123.5 -25.5t92 -73.5t57.5 -118
t20 -158zM965 336q0 -139 44.5 -211t129.5 -72t130.5 73t45.5 210q0 139 -44.5 209.5t-131.5 70.5q-85 0 -129.5 -71.5t-44.5 -208.5zM1434 334q0 -89 -20 -158t-58 -117t-93 -73t-124 -25t-123.5 25t-92 73t-57.5 117t-20 158q0 88 20 158t57.5 118t92 73.5t123.5 25.5
q139 0 217 -99t78 -276zM180 1106q0 -139 44.5 -211t129.5 -72t130.5 73t45.5 210q0 139 -44 209.5t-132 70.5q-85 0 -129.5 -71.5t-44.5 -208.5zM649 1104q0 -177 -78 -276t-217 -99q-69 0 -123.5 25.5t-92 73.5t-57.5 117.5t-20 158.5q0 88 20 158t57.5 118t92 73.5
t123.5 25.5q139 0 217 -99t78 -276zM270 -39l840 1518h109l-842 -1518h-107z" />
    <glyph glyph-name="guilsinglleft" unicode="&#x2039;" horiz-adv-x="422" 
d="M295 51l-252 385l244 395l86 -51l-209 -346l215 -332z" />
    <glyph glyph-name="guilsinglright" unicode="&#x203a;" horiz-adv-x="422" 
d="M125 51l-82 51l215 332l-211 346l88 51l244 -395z" />
    <glyph glyph-name="franc" unicode="&#x20a3;" horiz-adv-x="1671" 
d="M182 0v1464h725v-125h-592v-458h570v-125h-570v-756h-133zM1313 709q34 58 67.5 98.5t65.5 64.5q66 48 153 48q50 0 105 -19l-40 -116q-20 6 -41.5 10t-41.5 4q-110 0 -190 -104q-78 -104 -78 -259v-436h-123v887h123v-178z" />
    <glyph glyph-name="trademark" unicode="&#x2122;" horiz-adv-x="1706" 
d="M926 1454l174 -440l162 440h102v-530h-59v479l-181 -479h-49l-190 479v-479h-60v530h101zM694 1454v-51h-174v-479h-67v479h-179v51h420z" />
    <glyph glyph-name="partialdiff" unicode="&#x2202;" 
d="M750 578q11 69 16.5 144.5t5.5 160.5q0 180 -38 267t-116 87q-44 0 -100 -74q-54 -73 -108 -73q-29 0 -48.5 18.5t-19.5 46.5q0 59 61 102t148 43q159 0 254 -147q94 -146 94 -401q0 -335 -132 -557q-131 -222 -323 -222q-139 0 -224 105q-85 104 -85 280q0 172 107 296
q106 124 258 124q97 0 158.5 -48.5t91.5 -151.5zM713 459q0 126 -47 191t-138 65q-117 0 -191 -125q-73 -124 -73 -330q0 -118 47 -180t138 -62q114 0 189 125q75 126 75 316z" />
    <glyph glyph-name="Delta" unicode="&#x2206;" horiz-adv-x="1335" 
d="M1155 121l-487 1233l-490 -1233h977zM754 1473l592 -1473h-1358l594 1473h172z" />
    <glyph glyph-name="product" unicode="&#x220f;" horiz-adv-x="1491" 
d="M164 1473h1163v-1866h-135v1743h-893v-1743h-135v1866z" />
    <glyph glyph-name="summation" unicode="&#x2211;" horiz-adv-x="1290" 
d="M45 1473h1208v-123h-1038l721 -787l-760 -835h1077v-121h-1243v127l752 829l-717 787v123z" />
    <glyph glyph-name="minus" unicode="&#x2212;" horiz-adv-x="1706" 
d="M1452 651v-82h-1198v82h1198z" />
    <glyph glyph-name="fraction" unicode="&#x2215;" horiz-adv-x="342" 
d="M-342 -39l917 1518h107l-915 -1518h-109z" />
    <glyph glyph-name="periodcentered" unicode="&#x2219;" horiz-adv-x="590" 
d="M193 719q0 43 29.5 72.5t72.5 29.5t72.5 -29.5t29.5 -72.5q0 -21 -8 -40t-21.5 -33t-32.5 -22t-40 -8t-40 8t-32.5 22t-21.5 33t-8 40z" />
    <glyph glyph-name="radical" unicode="&#x221a;" horiz-adv-x="1264" 
d="M1264 1626v-61h-129l-596 -1606h-31l-330 907l-110 -39l-15 50l230 79l278 -759l531 1429h172z" />
    <glyph glyph-name="infinity" unicode="&#x221e;" horiz-adv-x="1706" 
d="M889 557q108 -205 287 -205q107 0 176 78t69 199q0 120 -64 196q-63 78 -159 78q-88 0 -158 -78q-69 -75 -151 -268zM819 670q-104 204 -287 204q-108 0 -177 -78q-68 -77 -68 -198q0 -119 63 -195q65 -77 160 -77q88 0 158 76t151 268zM836 713q66 140 146 207t177 67
q131 0 219 -106q90 -107 90 -265q0 -164 -80 -267q-80 -101 -210 -101q-94 0 -166 60q-35 31 -71 81t-71 121q-71 -139 -148.5 -203.5t-172.5 -64.5q-130 0 -221 106q-90 106 -90 264q0 166 80 267q79 102 210 102q98 0 172.5 -64.5t135.5 -203.5z" />
    <glyph glyph-name="integral" unicode="&#x222b;" horiz-adv-x="948" 
d="M401 578q0 496 86 733q87 235 269 235q33 0 60 -9.5t46.5 -26t30 -39.5t10.5 -50q0 -45 -27 -71.5t-75 -26.5q-77 0 -102 64q-24 65 -33 65q-68 0 -93 -159q-13 -80 -19.5 -250.5t-6.5 -436.5q0 -508 -86 -743q-86 -234 -268 -234q-63 0 -106 35q-42 34 -42 84
q0 48 28.5 77.5t76.5 29.5q33 0 56 -13.5t40 -42.5q7 -13 12 -44q4 -31 25 -31q66 0 92 165q13 83 19.5 254.5t6.5 434.5z" />
    <glyph glyph-name="approxequal" unicode="&#x2248;" horiz-adv-x="1706" 
d="M1530 485q-106 -75 -201.5 -111t-185.5 -36q-107 0 -296 70q-190 71 -282 71q-83 0 -171 -36q-45 -17 -98.5 -48t-117.5 -76v93q209 145 387 145q107 0 295 -70q190 -69 283 -69q81 0 171 35q87 35 216 125v-93zM1530 809q-106 -73 -201 -109t-186 -36q-106 0 -296 69
q-188 70 -282 70q-83 0 -171 -36q-45 -17 -98.5 -48t-117.5 -76v92q106 75 201.5 111.5t185.5 36.5q105 0 295 -71q192 -71 283 -71q81 0 168 36q88 36 219 126v-94z" />
    <glyph glyph-name="notequal" unicode="&#x2260;" horiz-adv-x="1706" 
d="M1280 1108l-217 -277h389v-79h-440l-219 -283h659v-82h-711l-254 -324l-61 48l215 276h-387v82h436l221 283h-657v79h709l254 326z" />
    <glyph glyph-name="lessequal" unicode="&#x2264;" horiz-adv-x="1706" 
d="M1442 129v-80h-1178v80h1178zM1442 1083l-1043 -350l1043 -352v-88l-1178 405v70l1178 403v-88z" />
    <glyph glyph-name="greaterequal" unicode="&#x2265;" horiz-adv-x="1706" 
d="M1442 129v-80h-1178v80h1178zM1442 768v-70l-1178 -405v88l1043 352l-1043 350v88z" />
    <glyph glyph-name="lozenge" unicode="&#x25ca;" horiz-adv-x="1012" 
d="M506 1409l-385 -817l385 -825l385 825zM506 1653l500 -1061l-500 -1069l-500 1069z" />
    <glyph glyph-name="apple" unicode="&#xf000;" horiz-adv-x="1618" 
d="M836 1216q-1 6 -1.5 14t-0.5 23q0 123 95 229q94 106 236 132q1 -10 1.5 -23t0.5 -39q0 -131 -104 -235q-103 -103 -203 -103h-8q-3 0 -7.5 1t-8.5 1zM1505 403q-114 -248 -205 -343q-92 -95 -204 -95q-50 0 -132 33q-81 33 -122 33q-46 0 -131 -33q-86 -33 -127 -33
q-127 0 -258 176q-102 140 -158 295q-55 155 -55 301q0 219 125 356q124 138 323 138q69 0 155 -34t124 -34q33 0 121 35q90 35 153 35q111 0 198.5 -39.5t160.5 -124.5q-103 -66 -152 -145.5t-49 -182.5q0 -114 59.5 -200.5t173.5 -137.5z" />
    <glyph glyph-name="fi" unicode="&#xf001;" horiz-adv-x="967" 
d="M637 1233q0 19 7.5 36.5t20 30t29.5 20t37 7.5q19 0 36.5 -7.5t30 -20t20 -30t7.5 -36.5q0 -42 -26 -68t-68 -26q-40 0 -67 27t-27 67zM668 0v887h127v-887h-127zM193 0v782h-166v105h166v256q0 266 50 346t183 80q33 0 63 -5.5t56 -15.5l-23 -108q-48 24 -88 24
q-65 0 -92 -52q-27 -51 -27 -189v-336h195v-105h-195v-782h-122z" />
    <glyph glyph-name="fl" unicode="&#xf002;" horiz-adv-x="977" 
d="M678 0v1550h125v-1550h-125zM193 0v782h-166v105h166v256q0 266 50 346t183 80q33 0 63 -5.5t56 -15.5l-23 -108q-48 24 -88 24q-65 0 -92 -52q-27 -51 -27 -189v-336h195v-105h-195v-782h-122z" />
    <glyph glyph-name="NULL" horiz-adv-x="0" 
 />
    </font>
</defs>
</svg>
